<?xml version="1.0" encoding="UTF-8"?>
<svg version="1.1" xmlns="http://www.w3.org/2000/svg" width="500" height="500">
<path d="M0 0 C5.62144618 4.19663459 10.50848883 8.95507173 15.4221344 13.95019531 C16.2820549 14.81531738 17.1419754 15.68043945 18.0279541 16.57177734 C20.75664007 19.31816084 23.47850497 22.07117193 26.19947815 24.82519531 C28.92488514 27.5783363 31.65178816 30.32995263 34.38171387 33.07861328 C36.0741305 34.7831636 37.76386802 36.49037961 39.45046997 38.20068359 C43.40331875 42.18686535 47.40522623 45.99014784 51.70968628 49.59329224 C53.40044641 51.05259615 54.82722082 52.62008419 56.2346344 54.35253906 C61.09922648 60.06114126 66.45202013 65.28931044 71.76124573 70.57983398 C73.57058748 72.38381616 75.37452134 74.19308196 77.17799377 76.00292969 C82.4649274 81.29227571 87.75722274 86.47990518 93.45314026 91.33276367 C96.2440058 93.80638424 98.71574698 96.54859503 101.19947815 99.32519531 C104.41661151 102.88376972 107.63102224 106.35793011 111.13697815 109.63769531 C116.71331012 115.20042648 118.81976633 121.20922056 119.2190094 129.03222656 C118.9201573 139.20742903 114.17139799 144.87084204 107.13697815 151.82519531 C106.43701721 152.52644531 105.73705627 153.22769531 105.0158844 153.95019531 C103.68775167 155.27573909 102.35445876 156.59613412 101.0158844 157.91113281 C99.2268193 159.73367314 97.588546 161.61797915 95.94947815 163.57519531 C92.94494602 167.06987927 89.65366935 170.16697254 86.2424469 173.25488281 C79.76801084 179.17580788 73.51399338 185.29432909 67.32252502 191.50927734 C65.61339377 193.22385485 63.89886195 194.93290508 62.18385315 196.64160156 C61.07415678 197.75195756 59.96477002 198.86262309 58.85572815 199.97363281 C58.35359802 200.47373871 57.8514679 200.9738446 57.3341217 201.48910522 C55.01207819 203.82645494 52.846888 206.18552477 50.77955627 208.75341797 C48.2449201 211.85930826 45.31365691 214.34745332 42.27220154 216.94549561 C38.51915995 220.24940808 35.07023026 223.85132403 31.5783844 227.42675781 C29.95969318 229.06782621 28.34053845 230.70843753 26.72096252 232.34863281 C24.20406081 234.90263089 21.69037682 237.45951134 19.18458557 240.02441406 C16.74175814 242.5219834 14.28619631 245.0064444 11.8283844 247.48925781 C11.09060257 248.25082184 10.35282074 249.01238586 9.59268188 249.79702759 C2.70944526 256.7142803 -4.48823558 261.82825567 -14.48802185 262.13769531 C-22.51449501 262.03130612 -29.53091179 258.99455492 -35.39427185 253.53222656 C-40.47691667 247.62500373 -42.2494771 240.680357 -42.0622406 232.98925781 C-40.55053116 216.56794349 -21.96762084 203.79922217 -11.0466156 192.91113281 C-9.22079925 191.08718435 -7.39520564 189.26301289 -5.56982422 187.43862915 C-1.27955884 183.15177315 3.01292261 178.86714819 7.30652231 174.58363211 C12.20102402 169.70037197 17.09263036 164.81421577 21.98401558 159.92783427 C32.03182239 149.89043364 42.08319513 139.8566098 52.13697815 129.82519531 C50.73466429 126.64954805 49.08278998 124.53010064 46.62052917 122.09515381 C45.89152908 121.36918503 45.16252899 120.64321625 44.41143799 119.89524841 C43.61139847 119.10868362 42.81135895 118.32211884 41.98707581 117.51171875 C41.14464828 116.67542435 40.30222076 115.83912994 39.43426514 114.97749329 C37.12546947 112.68674646 34.81242537 110.40038307 32.4980855 108.11524105 C30.07285946 105.71745779 27.65490471 103.31237153 25.23667908 100.90753174 C17.00158356 92.72067629 8.75486661 84.54558754 0.49928284 76.37939453 C-4.0619466 71.86739965 -8.61585089 67.34813702 -13.16214144 62.82108903 C-15.56554891 60.42858131 -17.97268702 58.04010917 -20.38918686 55.66082001 C-23.08679178 53.00174292 -25.77176174 50.33048343 -28.45433044 47.65625 C-29.64831703 46.4885482 -29.64831703 46.4885482 -30.86642456 45.29725647 C-37.56757481 38.5723138 -41.40164242 32.29762553 -41.96458435 22.63378906 C-41.713555 15.69186189 -39.41564525 9.09665398 -34.86302185 3.82519531 C-24.47611094 -4.56500845 -11.78013255 -7.42844478 0 0 Z " fill="#01C0C2" transform="translate(355.86302185058594,121.1748046875)"/>
<path d="M0 0 C5.83549571 4.71731689 8.68215772 11.15414675 9.6875 18.5 C10.1510531 27.75657602 7.59812559 33.43677812 1.75 40.4375 C-1.02290184 43.46003395 -3.91225801 46.35357771 -6.82568359 49.24023438 C-8.08520844 50.5001973 -8.08520844 50.5001973 -9.37017822 51.78561401 C-11.6512811 54.06557041 -13.93672872 56.34105591 -16.22426558 58.61455345 C-18.62217063 60.99987207 -21.01433279 63.39093661 -23.40713501 65.78137207 C-27.92908689 70.29713227 -32.45610807 74.80777423 -36.98501742 79.3165555 C-42.14502437 84.4541311 -47.29928648 89.597454 -52.45309711 94.74124432 C-63.04572857 105.31302622 -73.64547769 115.87764478 -84.25 126.4375 C-82.84768614 129.61314727 -81.19581183 131.73259467 -78.73355103 134.1675415 C-78.00455093 134.89351028 -77.27555084 135.61947906 -76.52445984 136.3674469 C-75.72442032 137.15401169 -74.9243808 137.94057648 -74.10009766 138.75097656 C-73.25767014 139.58727097 -72.41524261 140.42356537 -71.54728699 141.28520203 C-69.23849132 143.57594885 -66.92544722 145.86231224 -64.61110735 148.14745426 C-62.18588131 150.54523753 -59.76792656 152.95032378 -57.34970093 155.35516357 C-49.11460541 163.54201902 -40.86788846 171.71710777 -32.61230469 179.88330078 C-28.05107525 184.39529566 -23.49717096 188.9145583 -18.95088041 193.44160628 C-16.54747294 195.83411401 -14.14033483 198.22258614 -11.72383499 200.60187531 C-9.02623007 203.26095239 -6.34126011 205.93221188 -3.65869141 208.60644531 C-2.86270035 209.38491318 -2.06670929 210.16338104 -1.24659729 210.96543884 C5.24421037 217.47929211 9.35758235 223.74744408 10 233.0625 C9.88637266 239.82963943 8.12817241 247.00556093 3.40625 252.05859375 C-3.6784856 257.95697032 -10.37756473 260.86432437 -19.5390625 260.703125 C-36.5904211 259.03238669 -49.81619293 239.96266089 -61.0625 228.625 C-64.3785997 225.28224712 -67.6980439 221.94286732 -71.01953125 218.60546875 C-71.77168411 217.84501755 -72.52383698 217.08456635 -73.29878235 216.30107117 C-76.80995242 212.77352211 -80.32771072 209.51141656 -84.25 206.4375 C-85.26508282 205.34496952 -86.24680115 204.22041542 -87.19140625 203.06640625 C-92.24688173 197.16037471 -97.79848001 191.7400067 -103.30151367 186.25561523 C-105.18328274 184.37920525 -107.05964738 182.49751031 -108.93554688 180.61523438 C-114.35771189 175.1906889 -119.77459073 169.85019072 -125.61938477 164.87670898 C-128.20955835 162.59057734 -130.45091671 160.07954375 -132.75 157.5 C-135.94700516 153.9273676 -139.19982808 150.48032991 -142.6875 147.1875 C-148.55786842 141.32916102 -150.90872888 135.52490708 -151.33203125 127.23046875 C-151.03300753 117.04942302 -146.2846497 111.39423428 -139.25 104.4375 C-138.4765625 103.66277344 -137.703125 102.88804687 -136.90625 102.08984375 C-135.39452557 100.58070789 -133.87764308 99.07672004 -132.35546875 97.578125 C-130.44684143 95.63762821 -128.6864607 93.64600766 -126.9375 91.5625 C-124.12073403 88.27777017 -121.07778227 85.40222416 -117.859375 82.51171875 C-111.55953752 76.79818146 -105.51267249 70.85313571 -99.51098633 64.82885742 C-97.79297791 63.10541617 -96.06958749 61.38748363 -94.34570312 59.66992188 C-93.23144956 58.55500849 -92.11750569 57.43978548 -91.00390625 56.32421875 C-90.49863907 55.8209758 -89.99337189 55.31773285 -89.47279358 54.79924011 C-87.13177698 52.4428957 -84.97883808 50.10074299 -82.89038086 47.50708008 C-80.3566429 44.4018447 -77.42585844 41.91454126 -74.38522339 39.31719971 C-70.6321818 36.01328724 -67.18325211 32.41137128 -63.69140625 28.8359375 C-62.07271503 27.1948691 -60.4535603 25.55425778 -58.83398438 23.9140625 C-56.31708266 21.36006443 -53.80339867 18.80318397 -51.29760742 16.23828125 C-48.85477999 13.74071192 -46.39921816 11.25625091 -43.94140625 8.7734375 C-43.20362442 8.01187347 -42.46584259 7.25030945 -41.70570374 6.46566772 C-29.69429179 -5.60510311 -14.96756052 -9.93148283 0 0 Z " fill="#0179D5" transform="translate(176.25,122.5625)"/>
<path d="M0 0 C6.30605654 5.66976976 10.29416953 11.44748624 11.21191406 19.96728516 C11.44170755 29.09844257 9.4110125 38.00342003 7.75 46.9375 C5.69614635 58.09341054 3.78796541 69.24689196 2.17431641 80.47583008 C0.12418241 94.50280877 -2.25511653 108.46109911 -4.7109375 122.421875 C-5.16091628 124.99535605 -5.61059491 127.56888959 -6.05999756 130.14247131 C-7.24891256 136.94691878 -8.44281182 143.75048488 -9.6379776 150.55383682 C-10.37900379 154.77211953 -11.11902451 158.99057823 -11.85882568 163.20907593 C-12.10737666 164.62628229 -12.35592899 166.04348842 -12.60448265 167.46069431 C-12.727662 168.16304144 -12.85084135 168.86538857 -12.9777534 169.58901894 C-14.58668002 178.76240765 -16.19643918 187.93564903 -17.80874634 197.10844421 C-20.35858812 211.61743538 -22.89491348 226.12863761 -25.40328979 240.64486694 C-26.53182794 247.17565897 -27.66785415 253.70513836 -28.8067646 260.23412895 C-29.53407554 264.40594429 -30.25740842 268.57835823 -30.97088623 272.75256348 C-31.62291247 276.56688889 -32.28565675 280.37918849 -32.95703888 284.19015312 C-33.30403158 286.17633926 -33.63933581 288.16455682 -33.97406006 290.15284729 C-35.64720108 299.55529107 -37.90490339 308.21338585 -45 315 C-52.07882031 319.65612245 -59.09018469 321.79222486 -67.53515625 320.66015625 C-75.15162345 318.85904422 -81.12528907 314.3914783 -85.4140625 307.83984375 C-91.90994558 295.33877379 -88.19388608 282.20741834 -85.75 269.0625 C-83.69614635 257.90658946 -81.78796541 246.75310804 -80.17431641 235.52416992 C-78.12418241 221.49719123 -75.74488347 207.53890089 -73.2890625 193.578125 C-72.83908372 191.00464395 -72.38940509 188.43111041 -71.94000244 185.85752869 C-70.75108744 179.05308122 -69.55718818 172.24951512 -68.3620224 165.44616318 C-67.62099621 161.22788047 -66.88097549 157.00942177 -66.14117432 152.79092407 C-65.89262334 151.37371771 -65.64407101 149.95651158 -65.39551735 148.53930569 C-65.272338 147.83695856 -65.14915865 147.13461143 -65.0222466 146.41098106 C-63.41331998 137.23759235 -61.80356082 128.06435097 -60.19125366 118.89155579 C-57.64141188 104.38256462 -55.10508652 89.87136239 -52.59671021 75.35513306 C-51.46817206 68.82434103 -50.33214585 62.29486164 -49.1932354 55.76587105 C-48.46592446 51.59405571 -47.74259158 47.42164177 -47.02911377 43.24743652 C-46.37708753 39.43311111 -45.71434325 35.62081151 -45.04296112 31.80984688 C-44.69596842 29.82366074 -44.36066419 27.83544318 -44.02593994 25.84715271 C-42.35279892 16.44470893 -40.09509661 7.78661415 -33 1 C-22.50470186 -5.39070134 -10.56781325 -7.68760764 0 0 Z " fill="#019CCC" transform="translate(289,92)"/>
<path d="M0 0 C5.83549571 4.71731689 8.68215772 11.15414675 9.6875 18.5 C10.15162004 27.76789708 7.57858464 33.41210269 1.75 40.4375 C-0.63027318 43.05802272 -3.1157336 45.55765926 -5.63232422 48.046875 C-6.34521103 48.76005386 -7.05809784 49.47323273 -7.79258728 50.20802307 C-10.12523968 52.53929393 -12.46487196 54.86342056 -14.8046875 57.1875 C-16.43322759 58.81230578 -18.06132359 60.43755679 -19.68899536 62.06323242 C-23.95558477 66.32221831 -28.22814795 70.57516131 -32.50201416 74.82684326 C-36.86957387 79.17387366 -41.23141433 83.52663456 -45.59375 87.87890625 C-54.14026839 96.40403266 -62.6931133 104.92278146 -71.25 113.4375 C-71.91 112.4475 -72.57 111.4575 -73.25 110.4375 C-72.59 110.4375 -71.93 110.4375 -71.25 110.4375 C-71.25 109.7775 -71.25 109.1175 -71.25 108.4375 C-70.26 108.4375 -69.27 108.4375 -68.25 108.4375 C-67.59 107.1175 -66.93 105.7975 -66.25 104.4375 C-65.59 104.4375 -64.93 104.4375 -64.25 104.4375 C-64.25 103.4475 -64.25 102.4575 -64.25 101.4375 C-63.26 101.4375 -62.27 101.4375 -61.25 101.4375 C-61.1675 100.715625 -61.085 99.99375 -61 99.25 C-60.10274392 95.88528969 -58.46462486 94.08076193 -56.25 91.4375 C-56.25 90.7775 -56.25 90.1175 -56.25 89.4375 C-55.59 89.4375 -54.93 89.4375 -54.25 89.4375 C-54.25 88.1175 -54.25 86.7975 -54.25 85.4375 C-53.59 85.4375 -52.93 85.4375 -52.25 85.4375 C-52.25 86.0975 -52.25 86.7575 -52.25 87.4375 C-50.93 87.4375 -49.61 87.4375 -48.25 87.4375 C-47.56292445 84.94685112 -47.25 83.05863708 -47.25 80.4375 C-46.755 78.9525 -46.755 78.9525 -46.25 77.4375 C-43.28 77.9325 -43.28 77.9325 -40.25 78.4375 C-39.755 76.9525 -39.755 76.9525 -39.25 75.4375 C-38.26 75.4375 -37.27 75.4375 -36.25 75.4375 C-35.981875 74.839375 -35.71375 74.24125 -35.4375 73.625 C-34.25082594 71.43902146 -33.15400887 70.02417406 -31.25 68.4375 C-30.59 68.4375 -29.93 68.4375 -29.25 68.4375 C-29.25 67.4475 -29.25 66.4575 -29.25 65.4375 C-28.26 65.4375 -27.27 65.4375 -26.25 65.4375 C-25.96125 64.550625 -25.6725 63.66375 -25.375 62.75 C-24.41851252 59.93367576 -23.38201054 57.18666844 -22.25 54.4375 C-21.6725 54.64375 -21.095 54.85 -20.5 55.0625 C-17.73032433 55.52411261 -16.60438733 54.86694945 -14.25 53.4375 C-14.91 52.7775 -15.57 52.1175 -16.25 51.4375 C-15.875 48.3125 -15.875 48.3125 -15.25 45.4375 C-14.63125 45.6025 -14.0125 45.7675 -13.375 45.9375 C-11.28936614 46.51384644 -11.28936614 46.51384644 -9.25 46.4375 C-9.05664062 45.87160156 -8.86328125 45.30570313 -8.6640625 44.72265625 C-8.40367187 43.98917969 -8.14328125 43.25570312 -7.875 42.5 C-7.61976563 41.76910156 -7.36453125 41.03820312 -7.1015625 40.28515625 C-6.25 38.4375 -6.25 38.4375 -4.25 37.4375 C-3.92 38.0975 -3.59 38.7575 -3.25 39.4375 C-0.16646203 36.35396203 1.97058385 33.80223047 2.75 29.4375 C4.235 29.9325 4.235 29.9325 5.75 30.4375 C5.80382106 27.81222811 5.84358313 25.18805287 5.875 22.5625 C5.90013672 21.44294922 5.90013672 21.44294922 5.92578125 20.30078125 C5.9433959 18.34555539 5.85320189 16.39007979 5.75 14.4375 C4.76 13.4475 4.76 13.4475 3.75 12.4375 C4.08 11.7775 4.41 11.1175 4.75 10.4375 C3.76 10.1075 2.77 9.7775 1.75 9.4375 C1.75 8.7775 1.75 8.1175 1.75 7.4375 C0.76 6.9425 0.76 6.9425 -0.25 6.4375 C-0.745 5.4475 -0.745 5.4475 -1.25 4.4375 C-3.23 4.4375 -5.21 4.4375 -7.25 4.4375 C-7.476875 3.65375 -7.70375 2.87 -7.9375 2.0625 C-9.020005 -0.67778893 -9.020005 -0.67778893 -11.375 -1.875 C-17.88894375 -3.4326822 -22.72614758 -3.03141555 -28.56640625 0.15625 C-31.09998409 2.08435564 -32.00204088 4.56719404 -33.25 7.4375 C-35.25 8.625 -35.25 8.625 -37.25 9.4375 C-37.765625 9.97375 -38.28125 10.51 -38.8125 11.0625 C-40.25 12.4375 -40.25 12.4375 -43.25 12.4375 C-42.755 13.9225 -42.755 13.9225 -42.25 15.4375 C-44.25 17.4375 -44.25 17.4375 -46.25 18.4375 C-45.755 19.4275 -45.755 19.4275 -45.25 20.4375 C-46.9 21.0975 -48.55 21.7575 -50.25 22.4375 C-50.58 22.1075 -50.91 21.7775 -51.25 21.4375 C-54.22 26.3875 -54.22 26.3875 -57.25 31.4375 C-57.91 31.1075 -58.57 30.7775 -59.25 30.4375 C-64.48381585 32.26324972 -67.25038047 35.41728002 -70.63671875 39.59765625 C-72.25 41.4375 -72.25 41.4375 -75.25 43.4375 C-75.4975 44.0975 -75.745 44.7575 -76 45.4375 C-77.25 47.4375 -77.25 47.4375 -80.875 48.6875 C-81.98875 48.935 -83.1025 49.1825 -84.25 49.4375 C-81.98113346 46.31780851 -79.55912669 43.76933846 -76.62866211 41.29150391 C-72.08416806 37.35611219 -67.88965758 33.13468672 -63.69140625 28.8359375 C-62.07271503 27.1948691 -60.4535603 25.55425778 -58.83398438 23.9140625 C-56.31708266 21.36006443 -53.80339867 18.80318397 -51.29760742 16.23828125 C-48.85477999 13.74071192 -46.39921816 11.25625091 -43.94140625 8.7734375 C-43.20362442 8.01187347 -42.46584259 7.25030945 -41.70570374 6.46566772 C-29.69429179 -5.60510311 -14.96756052 -9.93148283 0 0 Z " fill="#21B0BE" transform="translate(176.25,122.5625)"/>
<path d="M0 0 C6.30605654 5.66976976 10.29416953 11.44748624 11.21191406 19.96728516 C11.41990489 28.23208447 9.73516535 36.21895736 8.23669434 44.30807495 C7.40990006 48.77493111 6.61156918 53.2468645 5.8125 57.71875 C5.65376404 58.60416977 5.49502808 59.48958954 5.33148193 60.40184021 C3.99719887 67.89515891 2.82735935 75.40258065 1.75 82.9375 C0.35914419 92.66468778 -1.2015046 102.33989972 -3 112 C-3.99 112 -4.98 112 -6 112 C-5.91621094 111.22914063 -5.83242188 110.45828125 -5.74609375 109.6640625 C-5.64425781 108.66117187 -5.54242188 107.65828125 -5.4375 106.625 C-5.28087891 105.12839844 -5.28087891 105.12839844 -5.12109375 103.6015625 C-4.78855292 101.015963 -4.78855292 101.015963 -6 99 C-5.6875 96.4375 -5.6875 96.4375 -5 94 C-4.34 93.67 -3.68 93.34 -3 93 C-0.58311732 86.58481758 -0.77303639 79.74586274 -1 73 C-0.34 73 0.32 73 1 73 C0.97679687 72.34515625 0.95359375 71.6903125 0.9296875 71.015625 C0.78707237 63.80337411 1.61772657 57.07180962 3 50 C2.34 50 1.68 50 1 50 C1 50.66 1 51.32 1 52 C0.34 52 -0.32 52 -1 52 C-1 50.35 -1 48.7 -1 47 C0.66666667 47 2.33333333 47 4 47 C4.33 44.69 4.66 42.38 5 40 C5.66 40 6.32 40 7 40 C6.979375 38.865625 6.95875 37.73125 6.9375 36.5625 C6.92353939 32.63956916 7.32268411 28.86028984 7.87890625 24.98046875 C8.13674044 22.78766058 8.13674044 22.78766058 7 20 C7.33 19.34 7.66 18.68 8 18 C7.62307986 14.94820584 7.62307986 14.94820584 6 12 C3.70989978 10.57000654 1.59137311 9.86379104 -1 9 C-0.95875 8.236875 -0.9175 7.47375 -0.875 6.6875 C-0.77919176 3.77281584 -0.77919176 3.77281584 -3 1 C-3.99 0.67 -4.98 0.34 -6 0 C-6 0.66 -6 1.32 -6 2 C-7.65 2 -9.3 2 -11 2 C-11 1.34 -11 0.68 -11 0 C-13.46326712 -1.6446674 -13.46326712 -1.6446674 -16 -3 C-16.33 -2.34 -16.66 -1.68 -17 -1 C-18.32 -1 -19.64 -1 -21 -1 C-21.33 -0.34 -21.66 0.32 -22 1 C-23.33038449 1.3449145 -24.66457061 1.67516582 -26 2 C-30.73958845 4.07751793 -30.73958845 4.07751793 -34 8 C-33.814375 8.78375 -33.62875 9.5675 -33.4375 10.375 C-33 13 -33 13 -34.1875 15.6875 C-36 18 -36 18 -38.0703125 18.84765625 C-40.22571222 19.82981356 -40.22571222 19.82981356 -40.57421875 22.171875 C-40.61160156 23.02265625 -40.64898437 23.8734375 -40.6875 24.75 C-40.8641323 27.73551664 -41.08817581 30.48496696 -41.625 33.4375 C-42.21280998 36.11200944 -42.21280998 36.11200944 -41 39 C-41.27769908 41.3406065 -41.60539977 43.67624308 -42 46 C-43.485 46.495 -43.485 46.495 -45 47 C-44.95875 48.010625 -44.9175 49.02125 -44.875 50.0625 C-45.00275352 54.08673585 -45.85422163 57.15827252 -47 61 C-47.28959793 63.00338292 -47.50067376 65.00645061 -47.7109375 67.01953125 C-48 69 -48 69 -49.125 72.6875 C-50.02106229 76.07973583 -49.76024116 77.67394494 -49 81 C-49.99 81.99 -49.99 81.99 -51 83 C-51.64767793 85.57061311 -51.64767793 85.57061311 -52 88 C-52.66 88 -53.32 88 -54 88 C-53.34404478 79.84087913 -52.04423941 71.8367485 -50.63671875 63.77734375 C-50.52127024 63.11372896 -50.40582172 62.45011417 -50.28687477 61.76638985 C-49.67683869 58.26044815 -49.06256725 54.75528102 -48.44458008 51.25073242 C-47.8121785 47.65976209 -47.19414436 44.06647461 -46.57937908 40.4724493 C-46.09908127 37.68014388 -45.60822033 34.88976757 -45.11457253 32.09979439 C-44.77049533 30.13983751 -44.43743162 28.17795723 -44.10466003 26.21604919 C-42.39506566 16.68319844 -40.20100827 7.88792095 -33 1 C-22.50470186 -5.39070134 -10.56781325 -7.68760764 0 0 Z " fill="#66DDCC" transform="translate(289,92)"/>
<path d="M0 0 C0.495 0.99 0.495 0.99 1 2 C0.27931168 3.73620367 -0.44747119 5.47067912 -1.23046875 7.1796875 C-2.17352248 9.41046435 -2.63800012 11.61080078 -3 14 C-5.31 14 -7.62 14 -10 14 C-10.33 15.32 -10.66 16.64 -11 18 C-10.34 18 -9.68 18 -9 18 C-9 18.66 -9 19.32 -9 20 C-10.11375 20.103125 -11.2275 20.20625 -12.375 20.3125 C-13.57125 20.539375 -14.7675 20.76625 -16 21 C-16.66 21.99 -17.32 22.98 -18 24 C-17.34 24.33 -16.68 24.66 -16 25 C-16.66 26.32 -17.32 27.64 -18 29 C-19.98 29 -21.96 29 -24 29 C-24.12375 29.556875 -24.2475 30.11375 -24.375 30.6875 C-25.05976855 33.22114364 -25.99133763 35.57921032 -27 38 C-27.99 37.34 -28.98 36.68 -30 36 C-31.485 36.495 -31.485 36.495 -33 37 C-34.00217064 40.58327753 -34.00217064 40.58327753 -33 44 C-33.99 44 -34.98 44 -36 44 C-36.33 48.29 -36.66 52.58 -37 57 C-36.34 57 -35.68 57 -35 57 C-35 57.66 -35 58.32 -35 59 C-34.34 59 -33.68 59 -33 59 C-33 59.99 -33 60.98 -33 62 C-30 63.33333333 -30 63.33333333 -27 62 C-26.7525 62.928125 -26.505 63.85625 -26.25 64.8125 C-24.40074918 69.52808959 -21.44436522 70.93654472 -17 73 C-17 73.33 -17 73.66 -17 74 C-9.76052305 74.7492805 -9.76052305 74.7492805 -3.4375 72 C-2.963125 71.34 -2.48875 70.68 -2 70 C-1.34 70 -0.68 70 0 70 C-0.33 68.35 -0.66 66.7 -1 65 C3.30769231 61.92307692 3.30769231 61.92307692 6.8125 62.3125 C7.534375 62.539375 8.25625 62.76625 9 63 C9.495 62.01 9.495 62.01 10 61 C10.66 61 11.32 61 12 61 C12.33 60.01 12.66 59.02 13 58 C14.33333333 56.66666667 15.66666667 55.33333333 17 54 C17 53.34 17 52.68 17 52 C18.98 51.505 18.98 51.505 21 51 C21 50.34 21 49.68 21 49 C22.65 49 24.3 49 26 49 C25.67 48.01 25.34 47.02 25 46 C25.66 46 26.32 46 27 46 C27 45.34 27 44.68 27 44 C28.64351457 42.63823078 30.31522656 41.31037934 32 40 C32.804375 39.13375 33.60875 38.2675 34.4375 37.375 C37.22244761 34.79382904 39.35747682 33.93180826 43 33 C38.82894282 37.96166012 34.50449198 42.67941819 29.94921875 47.2890625 C29.2909761 47.95537689 28.63273346 48.62169128 27.95454407 49.30819702 C26.57020684 50.7062718 25.18437657 52.10286965 23.79711914 53.49804688 C22.39157257 54.91514232 20.99051125 56.3367007 19.59399414 57.76269531 C17.5555969 59.84399357 15.50405465 61.91150665 13.44921875 63.9765625 C12.83640549 64.60688385 12.22359222 65.2372052 11.59220886 65.8866272 C5.03553694 72.41136094 -2.2061747 77.02103798 -11.625 77.3125 C-19.65147316 77.20611081 -26.66788994 74.16935961 -32.53125 68.70703125 C-37.61389482 62.79980842 -39.38645525 55.85516169 -39.19921875 48.1640625 C-37.83336223 33.32711128 -22.90359947 22.77131439 -12.9375 12.875 C-11.67749898 11.62002796 -10.41773176 10.36482114 -9.15820312 9.109375 C-6.10815147 6.07020916 -3.0549738 3.03421773 0 0 Z " fill="#118FCA" transform="translate(353,306)"/>
<path d="M0 0 C5.62144618 4.19663459 10.50848883 8.95507173 15.4221344 13.95019531 C16.2820549 14.81531738 17.1419754 15.68043945 18.0279541 16.57177734 C20.75664007 19.31816084 23.47850497 22.07117193 26.19947815 24.82519531 C28.92488514 27.5783363 31.65178816 30.32995263 34.38171387 33.07861328 C36.0741305 34.7831636 37.76386802 36.49037961 39.45046997 38.20068359 C43.40365287 42.18720228 47.40594855 45.99068382 51.71078491 49.59411621 C53.3966361 51.04933007 54.81729818 52.611967 56.2190094 54.34082031 C61.70319361 60.77910862 67.82765592 66.6204644 73.82447815 72.57519531 C75.05973875 73.80542859 76.29476654 75.03589567 77.52955627 76.26660156 C79.79008653 78.51902395 82.0519194 80.77011903 84.31544495 83.01953125 C86.59307501 85.28435124 88.86728511 87.55242727 91.13697815 89.82519531 C90.14697815 90.32019531 90.14697815 90.32019531 89.13697815 90.82519531 C89.13697815 90.16519531 89.13697815 89.50519531 89.13697815 88.82519531 C87.15697815 88.16519531 85.17697815 87.50519531 83.13697815 86.82519531 C83.13697815 85.83519531 83.13697815 84.84519531 83.13697815 83.82519531 C82.47697815 83.82519531 81.81697815 83.82519531 81.13697815 83.82519531 C80.80697815 84.48519531 80.47697815 85.14519531 80.13697815 85.82519531 C80.13697815 84.17519531 80.13697815 82.52519531 80.13697815 80.82519531 C79.54787659 80.55191406 78.95877502 80.27863281 78.3518219 79.99707031 C72.57267731 76.93932185 68.02054451 72.0032838 64.13697815 66.82519531 C64.13697815 66.16519531 64.13697815 65.50519531 64.13697815 64.82519531 C63.55947815 64.53644531 62.98197815 64.24769531 62.38697815 63.95019531 C60.9280497 63.22073109 59.48805342 62.45157198 58.07447815 61.63769531 C55.98313109 60.51064177 55.98313109 60.51064177 53.13697815 61.82519531 C53.17822815 60.91769531 53.21947815 60.01019531 53.26197815 59.07519531 C53.14166259 55.94699072 52.74550735 54.43905526 51.13697815 51.82519531 C49.15697815 52.48519531 47.17697815 53.14519531 45.13697815 53.82519531 C45.32260315 52.52582031 45.32260315 52.52582031 45.51197815 51.20019531 C44.97146783 46.33560245 42.76109781 44.99630002 39.13697815 41.82519531 C38.14697815 42.32019531 38.14697815 42.32019531 37.13697815 42.82519531 C36.47697815 40.51519531 35.81697815 38.20519531 35.13697815 35.82519531 C34.51822815 35.74269531 33.89947815 35.66019531 33.26197815 35.57519531 C32.56072815 35.32769531 31.85947815 35.08019531 31.13697815 34.82519531 C30.84822815 34.20644531 30.55947815 33.58769531 30.26197815 32.95019531 C28.63777649 29.88225885 26.20318846 29.29442109 23.13697815 27.82519531 C21.13697815 24.82519531 21.13697815 24.82519531 20.13697815 22.82519531 C16.56162796 21.74908992 16.56162796 21.74908992 13.13697815 22.82519531 C12.47697815 19.85519531 11.81697815 16.88519531 11.13697815 13.82519531 C8.82697815 14.15519531 6.51697815 14.48519531 4.13697815 14.82519531 C4.15760315 13.87644531 4.17822815 12.92769531 4.19947815 11.95019531 C4.36249641 8.91853248 4.36249641 8.91853248 3.13697815 6.82519531 C2.14697815 6.49519531 1.15697815 6.16519531 0.13697815 5.82519531 C0.13697815 5.16519531 0.13697815 4.50519531 0.13697815 3.82519531 C-1.18302185 3.16519531 -2.50302185 2.50519531 -3.86302185 1.82519531 C-3.86302185 1.16519531 -3.86302185 0.50519531 -3.86302185 -0.17480469 C-10.41336359 -1.51846453 -17.65849125 -2.48720401 -23.8981781 0.49316406 C-27.79396741 3.13424588 -31.12811531 6.4849199 -34.5075531 9.74316406 C-36.86302185 11.82519531 -36.86302185 11.82519531 -38.86302185 11.82519531 C-36.74580402 5.08859313 -31.81886953 1.27958697 -25.86302185 -2.17480469 C-16.97048564 -5.46833662 -8.10245314 -5.10933349 0 0 Z " fill="#29DABA" transform="translate(355.86302185058594,121.1748046875)"/>
<path d="M0 0 C0.99 0.99 0.99 0.99 2 2 C2.66 1.34 3.32 0.68 4 0 C5.32 0 6.64 0 8 0 C6.68634063 2.90297734 5.27927877 4.96908109 3.02609253 7.2144165 C2.41752411 7.82573425 1.80895569 8.437052 1.1819458 9.06689453 C0.51588318 9.7257666 -0.15017944 10.38463867 -0.83642578 11.06347656 C-1.53897491 11.76631775 -2.24152405 12.46915894 -2.96536255 13.19329834 C-5.28730311 15.51384625 -7.61624628 17.8272308 -9.9453125 20.140625 C-11.55714732 21.74872947 -13.16854097 23.35727625 -14.7795105 24.96624756 C-19.01987029 29.19897265 -23.26620206 33.42565715 -27.51379395 37.65112305 C-31.84744543 41.96431271 -36.17543788 46.28317249 -40.50390625 50.6015625 C-48.99706673 59.07327591 -57.49654528 67.53862033 -66 76 C-66.66 75.01 -67.32 74.02 -68 73 C-67.34 73 -66.68 73 -66 73 C-66 72.34 -66 71.68 -66 71 C-65.01 71 -64.02 71 -63 71 C-62.34 69.68 -61.68 68.36 -61 67 C-60.34 67 -59.68 67 -59 67 C-59 66.01 -59 65.02 -59 64 C-58.01 64 -57.02 64 -56 64 C-55.87625 62.9171875 -55.87625 62.9171875 -55.75 61.8125 C-54.85274392 58.44778969 -53.21462486 56.64326193 -51 54 C-51 53.34 -51 52.68 -51 52 C-50.34 52 -49.68 52 -49 52 C-49 50.68 -49 49.36 -49 48 C-48.34 48 -47.68 48 -47 48 C-47 48.66 -47 49.32 -47 50 C-45.68 50 -44.36 50 -43 50 C-42.31292445 47.50935112 -42 45.62113708 -42 43 C-41.67 42.01 -41.34 41.02 -41 40 C-39.02 40.33 -37.04 40.66 -35 41 C-34.67 40.01 -34.34 39.02 -34 38 C-33.01 38 -32.02 38 -31 38 C-30.731875 37.401875 -30.46375 36.80375 -30.1875 36.1875 C-29.00082594 34.00152146 -27.90400887 32.58667406 -26 31 C-25.34 31 -24.68 31 -24 31 C-24 30.01 -24 29.02 -24 28 C-23.01 28 -22.02 28 -21 28 C-20.71125 27.113125 -20.4225 26.22625 -20.125 25.3125 C-19.16851252 22.49617576 -18.13201054 19.74916844 -17 17 C-16.13375 17.309375 -16.13375 17.309375 -15.25 17.625 C-12.48032433 18.08661261 -11.35438733 17.42944945 -9 16 C-9.66 15.34 -10.32 14.68 -11 14 C-10.625 10.875 -10.625 10.875 -10 8 C-9.38125 8.165 -8.7625 8.33 -8.125 8.5 C-6.03936614 9.07634644 -6.03936614 9.07634644 -4 9 C-3.79503906 8.43410156 -3.59007812 7.86820313 -3.37890625 7.28515625 C-3.10949219 6.55167969 -2.84007812 5.81820312 -2.5625 5.0625 C-2.29566406 4.33160156 -2.02882813 3.60070312 -1.75390625 2.84765625 C-1 1 -1 1 0 0 Z " fill="#1FA3C5" transform="translate(171,160)"/>
<path d="M0 0 C0.66 0 1.32 0 2 0 C1.88481642 2.66740923 1.75810454 5.33347241 1.625 8 C1.57859375 9.11568359 1.57859375 9.11568359 1.53125 10.25390625 C1.33017521 14.10783982 0.91686123 17.64351237 -0.09375 21.375 C-1.05983729 25.23934918 -0.91537966 26.59488061 1 30 C0.34 30 -0.32 30 -1 30 C-1.12375 30.66 -1.2475 31.32 -1.375 32 C-2.14520538 35.69698583 -3.06950663 39.34005942 -4 43 C-3.34 43.33 -2.68 43.66 -2 44 C-2.20625 44.763125 -2.4125 45.52625 -2.625 46.3125 C-3.33391203 49.21885944 -3.33391203 49.21885944 -1 52 C-0.67 52.66 -0.34 53.32 0 54 C-0.33 54.99 -0.66 55.98 -1 57 C-0.34 57.33 0.32 57.66 1 58 C1.33 58.66 1.66 59.32 2 60 C2.598125 59.814375 3.19625 59.62875 3.8125 59.4375 C6 59 6 59 9 60 C9 60.99 9 61.98 9 63 C9.66 63 10.32 63 11 63 C11 63.66 11 64.32 11 65 C10.01 65 9.02 65 8 65 C8 65.66 8 66.32 8 67 C9.98 67.33 11.96 67.66 14 68 C14.33 67.34 14.66 66.68 15 66 C15.33 66.99 15.66 67.98 16 69 C11.44050703 69.57898323 8.52926518 69.93212354 4.5390625 67.5 C-1.5480959 62.32288189 -5.31453533 56.81770819 -7 49 C-7.44942089 42.34315675 -6.71555772 36.0184108 -5.46875 29.4921875 C-5.31337769 28.64069122 -5.15800537 27.78919495 -4.9979248 26.91189575 C-4.50686757 24.23133107 -4.0036752 21.55321922 -3.5 18.875 C-3.16194997 17.04181593 -2.82470325 15.20848354 -2.48828125 13.375 C-1.66811596 8.91490079 -0.83707066 4.45695599 0 0 Z " fill="#1F6AD2" transform="translate(207,341)"/>
<path d="M0 0 C0.33 0.66 0.66 1.32 1 2 C3.31 2 5.62 2 8 2 C9 6.75 9 6.75 9 9 C12.86763446 10.87543354 12.86763446 10.87543354 17 10 C16.49396008 12.16874252 16.00016187 13.99967627 15 16 C15.99 16.33 16.98 16.66 18 17 C17.67 17.66 17.34 18.32 17 19 C20.465 18.505 20.465 18.505 24 18 C24.5156159 20.0624636 25.0155553 22.09073927 25.375 24.1875 C25.58125 24.785625 25.7875 25.38375 26 26 C26.99 26.33 27.98 26.66 29 27 C29.66 26.67 30.32 26.34 31 26 C33.6855594 28.6855594 34.06049974 31.37621328 35 35 C29.77020977 35 26.26567363 31.36482364 22.65673828 27.88378906 C21.45611798 26.68285614 20.2608619 25.47654248 19.0703125 24.265625 C18.43511688 23.62759949 17.79992126 22.98957397 17.14547729 22.33221436 C15.13387395 20.30948828 13.12936863 18.27989279 11.125 16.25 C9.75567266 14.87063265 8.38588559 13.49172152 7.015625 12.11328125 C3.67174149 8.74744234 0.33420247 5.3754281 -3 2 C-2.01 1.34 -1.02 0.68 0 0 Z " fill="#085BD6" transform="translate(63,294)"/>
<path d="M0 0 C1.13214526 3.39643577 0.8575376 4.93914859 0.2590332 8.43017578 C0.07166092 9.54208282 -0.11571136 10.65398987 -0.3087616 11.79959106 C-0.52011246 13.00267914 -0.73146332 14.20576721 -0.94921875 15.4453125 C-1.16310745 16.68489716 -1.37699615 17.92448181 -1.59736633 19.20162964 C-2.05354436 21.8301543 -2.51292589 24.45789358 -2.97729492 27.08496094 C-3.56745675 30.42799884 -4.14023801 33.77374266 -4.708148 37.12062263 C-5.25676632 40.33492725 -5.82277131 43.54616775 -6.38671875 46.7578125 C-6.58794846 47.94875519 -6.78917816 49.13969788 -6.99650574 50.36672974 C-8.8868599 60.89012769 -11.67992094 69.9088252 -20.25 76.8125 C-24.08789117 78.46977119 -27.85635074 78.73820081 -32 79 C-29.27588872 76.00674001 -26.83322658 75.24996519 -23 74 C-22.505 73.01 -22.505 73.01 -22 72 C-21.34 72 -20.68 72 -20 72 C-20 71.01 -20 70.02 -20 69 C-17.03 68.505 -17.03 68.505 -14 68 C-13.67 65.69 -13.34 63.38 -13 61 C-12.34 61 -11.68 61 -11 61 C-11 60.34 -11 59.68 -11 59 C-12.485 58.505 -12.485 58.505 -14 58 C-12.35 54.7 -10.7 51.4 -9 48 C-10.485 47.505 -10.485 47.505 -12 47 C-11.01 46.505 -11.01 46.505 -10 46 C-10 44.02 -10 42.04 -10 40 C-9.34 40 -8.68 40 -8 40 C-7.90912109 38.95199219 -7.90912109 38.95199219 -7.81640625 37.8828125 C-7.73261719 36.97273438 -7.64882812 36.06265625 -7.5625 35.125 C-7.48128906 34.22007812 -7.40007812 33.31515625 -7.31640625 32.3828125 C-7 30 -7 30 -6 28 C-6.04125 26.865625 -6.0825 25.73125 -6.125 24.5625 C-6.21463958 19.14428545 -4.73020093 14.10095508 -3 9 C-2.67 8.67 -2.34 8.34 -2 8 C-1.835 6.845 -1.67 5.69 -1.5 4.5 C-1 1 -1 1 0 0 Z " fill="#186ED1" transform="translate(262,332)"/>
<path d="M0 0 C0 4.32590054 -0.49904727 5.60584987 -3 9 C-3.68191406 9.28101562 -4.36382812 9.56203125 -5.06640625 9.8515625 C-7.22611071 10.82882864 -7.22611071 10.82882864 -7.57421875 13.171875 C-7.61160156 14.02265625 -7.64898437 14.8734375 -7.6875 15.75 C-7.8641323 18.73551664 -8.08817581 21.48496696 -8.625 24.4375 C-9.21280998 27.11200944 -9.21280998 27.11200944 -8 30 C-8.27769908 32.3406065 -8.60539977 34.67624308 -9 37 C-10.485 37.495 -10.485 37.495 -12 38 C-11.95875 39.010625 -11.9175 40.02125 -11.875 41.0625 C-12.00275352 45.08673585 -12.85422163 48.15827252 -14 52 C-14.28959793 54.00338292 -14.50067376 56.00645061 -14.7109375 58.01953125 C-15 60 -15 60 -16.125 63.6875 C-17.02106229 67.07973583 -16.76024116 68.67394494 -16 72 C-16.99 72.99 -16.99 72.99 -18 74 C-18.64767793 76.57061311 -18.64767793 76.57061311 -19 79 C-19.66 79 -20.32 79 -21 79 C-20.35283968 70.76045483 -18.9895576 62.6964964 -17.53125 54.56640625 C-17.2881891 53.19787689 -17.0453961 51.82929993 -16.80285645 50.4606781 C-16.2975151 47.61374192 -15.78964415 44.76727309 -15.27978516 41.92114258 C-14.62667407 38.27471658 -13.97896389 34.62735645 -13.33298492 30.97966099 C-12.83374787 28.16296667 -12.33222102 25.34668403 -11.8299408 22.53053093 C-11.59014024 21.1850212 -11.3509283 19.83940643 -11.11231995 18.49368477 C-10.77960507 16.61981909 -10.44359027 14.74654022 -10.10742188 12.87329102 C-9.91724487 11.80869156 -9.72706787 10.7440921 -9.53112793 9.64723206 C-9 7 -9 7 -8 4 C-7.01 4 -6.02 4 -5 4 C-5 3.01 -5 2.02 -5 1 C-3 0 -3 0 0 0 Z " fill="#14C3BD" transform="translate(256,101)"/>
<path d="M0 0 C0.99 0.66 1.98 1.32 3 2 C2.01 2.33 1.02 2.66 0 3 C0 4.32 0 5.64 0 7 C-1.3125 8.75 -1.3125 8.75 -3 10 C-3.99 10 -4.98 10 -6 10 C-5.505 11.485 -5.505 11.485 -5 13 C-7 15 -7 15 -9 16 C-8.505 16.99 -8.505 16.99 -8 18 C-9.65 18.66 -11.3 19.32 -13 20 C-13.33 19.67 -13.66 19.34 -14 19 C-16.97 23.95 -16.97 23.95 -20 29 C-20.66 28.67 -21.32 28.34 -22 28 C-27.23381585 29.82574972 -30.00038047 32.97978002 -33.38671875 37.16015625 C-35 39 -35 39 -38 41 C-38.2475 41.66 -38.495 42.32 -38.75 43 C-40 45 -40 45 -43.625 46.25 C-44.73875 46.4975 -45.8525 46.745 -47 47 C-44.7288946 43.87723008 -42.30144497 41.32199517 -39.37109375 38.83764648 C-34.9022019 34.96768285 -30.72631032 30.85363777 -26.5625 26.66015625 C-25.41418701 25.50972084 -25.41418701 25.50972084 -24.24267578 24.33604431 C-21.82606803 21.91389119 -19.41298274 19.48826388 -17 17.0625 C-15.35049314 15.40797107 -13.70075571 13.75367198 -12.05078125 12.09960938 C-8.03118629 8.06905798 -4.01446831 4.03565728 0 0 Z " fill="#21A9CB" transform="translate(139,125)"/>
<path d="M0 0 C-0.020625 0.928125 -0.04125 1.85625 -0.0625 2.8125 C-0.15769604 6.02286011 -0.15769604 6.02286011 1 9 C0.67 9.66 0.34 10.32 0 11 C-1.11375 10.95875 -2.2275 10.9175 -3.375 10.875 C-7.04366025 10.58878141 -7.04366025 10.58878141 -9 13 C-9.66515625 13.27972656 -10.3303125 13.55945313 -11.015625 13.84765625 C-13.620069 15.36007944 -13.90841332 16.59013175 -14.75 19.4375 C-14.99234375 20.21996094 -15.2346875 21.00242187 -15.484375 21.80859375 C-16.11451967 24.11150011 -16.11451967 24.11150011 -16 27 C-16.78375 27.12375 -17.5675 27.2475 -18.375 27.375 C-21.87579145 28.20852177 -22.9374892 29.93255414 -25.375 32.5625 C-27.90694909 34.91359558 -28.72215094 35.59026887 -32 36 C-32.9075 36.185625 -33.815 36.37125 -34.75 36.5625 C-35.4925 36.706875 -36.235 36.85125 -37 37 C-32.82717654 32.02426582 -28.48472573 27.33695213 -23.88671875 22.75390625 C-23.23169876 22.09792953 -22.57667877 21.44195282 -21.90180969 20.76609802 C-20.53073805 19.39435098 -19.15842327 18.0238454 -17.78491211 16.65454102 C-15.67248899 14.54752743 -13.56552392 12.43515974 -11.45898438 10.32226562 C-10.12271682 8.98665795 -8.78613959 7.65136001 -7.44921875 6.31640625 C-6.81698898 5.68215225 -6.18475922 5.04789825 -5.53337097 4.39442444 C-1.11498244 0 -1.11498244 0 0 0 Z " fill="#02B6C5" transform="translate(391,269)"/>
<path d="M0 0 C1.98 0.66 3.96 1.32 6 2 C5.41799126 5.2648744 4.4813186 6.88873979 2.13256836 9.20800781 C1.53202133 9.80832825 0.9314743 10.40864868 0.31272888 11.02716064 C-0.33832321 11.66272888 -0.98937531 12.29829712 -1.66015625 12.953125 C-2.32462265 13.61334656 -2.98908905 14.27356812 -3.6736908 14.95379639 C-5.79635563 17.0596764 -7.92921605 19.15488328 -10.0625 21.25 C-11.50393934 22.67639232 -12.94470309 24.1034677 -14.38476562 25.53125 C-17.91538832 29.02880594 -21.45519053 32.51682565 -25 36 C-25.66 35.01 -26.32 34.02 -27 33 C-26.34 33 -25.68 33 -25 33 C-25 32.34 -25 31.68 -25 31 C-24.01 31 -23.02 31 -22 31 C-21.34 29.68 -20.68 28.36 -20 27 C-19.34 27 -18.68 27 -18 27 C-18 26.01 -18 25.02 -18 24 C-17.01 24 -16.02 24 -15 24 C-14.9175 23.278125 -14.835 22.55625 -14.75 21.8125 C-13.85274392 18.44778969 -12.21462486 16.64326193 -10 14 C-10 13.34 -10 12.68 -10 12 C-9.34 12 -8.68 12 -8 12 C-8 10.68 -8 9.36 -8 8 C-7.34 8 -6.68 8 -6 8 C-6 8.66 -6 9.32 -6 10 C-4.68 10 -3.36 10 -2 10 C-1.31292445 7.50935112 -1 5.62113708 -1 3 C-0.67 2.01 -0.34 1.02 0 0 Z " fill="#1D8EC9" transform="translate(130,200)"/>
<path d="M0 0 C0.66 0.33 1.32 0.66 2 1 C-2.82033363 5.84559497 -7.64450976 10.68733899 -12.47143555 15.52636719 C-14.11458632 17.1745608 -15.75684039 18.82364886 -17.39819336 20.47363281 C-19.75141521 22.83892247 -22.10779552 25.20102416 -24.46484375 27.5625 C-25.20339096 28.3062085 -25.94193817 29.04991699 -26.7028656 29.81616211 C-27.72381065 30.83722046 -27.72381065 30.83722046 -28.76538086 31.87890625 C-29.3671666 32.4829126 -29.96895233 33.08691895 -30.588974 33.70922852 C-32 35 -32 35 -33 35 C-33 33.35 -33 31.7 -33 30 C-32.360625 29.731875 -31.72125 29.46375 -31.0625 29.1875 C-28.66868314 28.11332248 -28.66868314 28.11332248 -28 25 C-26 23 -26 23 -24 21 C-24 20.34 -24 19.68 -24 19 C-22.68 18.67 -21.36 18.34 -20 18 C-20 17.34 -20 16.68 -20 16 C-18.35 16 -16.7 16 -15 16 C-15.33 15.01 -15.66 14.02 -16 13 C-15.34 13 -14.68 13 -14 13 C-14 12.34 -14 11.68 -14 11 C-12.35648543 9.63823078 -10.68477344 8.31037934 -9 7 C-8.154375 6.13375 -7.30875 5.2675 -6.4375 4.375 C-4.29544089 2.28786548 -2.80453217 0.96708006 0 0 Z " fill="#2AA1CE" transform="translate(394,339)"/>
<path d="M0 0 C1.27140155 4.27893738 0.59662323 7.99291123 -0.109375 12.32421875 C-0.30058929 13.55372002 -0.30058929 13.55372002 -0.4956665 14.80805969 C-0.90640843 17.43575925 -1.32822671 20.0615511 -1.75 22.6875 C-2.01891615 24.4041894 -2.28715186 26.12098554 -2.5546875 27.83789062 C-4.2397354 38.58218305 -6.06938617 49.29726831 -8 60 C-8.99 60 -9.98 60 -11 60 C-10.91621094 59.22914063 -10.83242188 58.45828125 -10.74609375 57.6640625 C-10.59333984 56.15972656 -10.59333984 56.15972656 -10.4375 54.625 C-10.33308594 53.62726563 -10.22867187 52.62953125 -10.12109375 51.6015625 C-9.78855292 49.015963 -9.78855292 49.015963 -11 47 C-10.6875 44.4375 -10.6875 44.4375 -10 42 C-9.01 41.505 -9.01 41.505 -8 41 C-5.58311732 34.58481758 -5.77303639 27.74586274 -6 21 C-5.34 21 -4.68 21 -4 21 C-3.87153687 20.15236084 -3.87153687 20.15236084 -3.74047852 19.28759766 C-3.35130182 16.73285367 -2.95696515 14.17893253 -2.5625 11.625 C-2.42779297 10.73554688 -2.29308594 9.84609375 -2.15429688 8.9296875 C-2.02216797 8.07890625 -1.89003906 7.228125 -1.75390625 6.3515625 C-1.63345947 5.56604004 -1.5130127 4.78051758 -1.38891602 3.97119141 C-1 2 -1 2 0 0 Z " fill="#50C6CB" transform="translate(294,144)"/>
<path d="M0 0 C0.33 0.66 0.66 1.32 1 2 C0.27931168 3.73620367 -0.44747119 5.47067912 -1.23046875 7.1796875 C-2.17352248 9.41046435 -2.63800012 11.61080078 -3 14 C-5.31 14 -7.62 14 -10 14 C-10.33 15.32 -10.66 16.64 -11 18 C-10.34 18 -9.68 18 -9 18 C-9 18.66 -9 19.32 -9 20 C-10.60875 20.12375 -10.60875 20.12375 -12.25 20.25 C-16.44657645 21.08931529 -17.17958944 21.99762747 -20 25 C-23.25 26.25 -23.25 26.25 -26 27 C-20.89551178 20.81865131 -15.31705058 15.20177122 -9.625 9.5625 C-8.69816406 8.64017578 -7.77132813 7.71785156 -6.81640625 6.76757812 C-4.54654154 4.50941375 -2.27436462 2.25363058 0 0 Z " fill="#0E9BC9" transform="translate(353,306)"/>
<path d="M0 0 C0.99 0.33 1.98 0.66 3 1 C6.71382649 10.18683395 4.93847835 19.92176181 3.125 29.375 C2.95097656 30.34566406 2.77695312 31.31632812 2.59765625 32.31640625 C1.80139158 36.59264243 0.98631967 40.12208977 -1 44 C-1.43798538 46.23859193 -1.80873928 48.49099487 -2.125 50.75 C-2.29257812 51.92046875 -2.46015625 53.0909375 -2.6328125 54.296875 C-2.75398438 55.18890625 -2.87515625 56.0809375 -3 57 C-5.50014115 53.25904806 -4.90042304 50.55790579 -4.125 46.25 C-3.81949219 44.49429688 -3.81949219 44.49429688 -3.5078125 42.703125 C-3.34023438 41.81109375 -3.17265625 40.9190625 -3 40 C-3.66 40 -4.32 40 -5 40 C-5 40.66 -5 41.32 -5 42 C-5.66 42 -6.32 42 -7 42 C-7 40.35 -7 38.7 -7 37 C-5.33333333 37 -3.66666667 37 -2 37 C-1.67 34.69 -1.34 32.38 -1 30 C-0.34 30 0.32 30 1 30 C0.979375 28.865625 0.95875 27.73125 0.9375 26.5625 C0.92353939 22.63956916 1.32268411 18.86028984 1.87890625 14.98046875 C2.13674044 12.78766058 2.13674044 12.78766058 1 10 C1.33 9.34 1.66 8.68 2 8 C1.68236347 6.00103089 1.68236347 6.00103089 1.0625 3.875 C0.86785156 3.15054688 0.67320312 2.42609375 0.47265625 1.6796875 C0.31667969 1.12539062 0.16070312 0.57109375 0 0 Z " fill="#29CEBA" transform="translate(295,102)"/>
<path d="M0 0 C5.10381423 4.39983985 6.94487516 9.37790237 7.8125 15.875 C8.38496926 23.72259941 6.78564185 29.7786656 2 36 C1.01 35.67 0.02 35.34 -1 35 C-0.67 32.36 -0.34 29.72 0 27 C1.32 27.33 2.64 27.66 4 28 C4.05382106 25.37472811 4.09358313 22.75055287 4.125 20.125 C4.14175781 19.37863281 4.15851563 18.63226563 4.17578125 17.86328125 C4.1933959 15.90805539 4.10320189 13.95257979 4 12 C3.34 11.34 2.68 10.68 2 10 C1.3671875 7.6171875 1.3671875 7.6171875 0.875 4.875 C0.70742187 3.96492187 0.53984375 3.05484375 0.3671875 2.1171875 C0.18542969 1.06917969 0.18542969 1.06917969 0 0 Z " fill="#2BAFC3" transform="translate(178,125)"/>
<path d="M0 0 C19.24769634 15.97149271 19.24769634 15.97149271 20.9375 28.375 C21.28747333 34.52087317 20.49743708 40.70960812 16.68359375 45.734375 C15.3125 47.125 15.3125 47.125 13 49 C13 48.01 13 47.02 13 46 C13.66 46 14.32 46 15 46 C15 44.68 15 43.36 15 42 C15.66 42 16.32 42 17 42 C17 40.68 17 39.36 17 38 C17.66 38 18.32 38 19 38 C17.9036067 23.51439013 17.9036067 23.51439013 9.75 12.125 C8.8425 11.42375 7.935 10.7225 7 10 C7 9.34 7 8.68 7 8 C6.34 8 5.68 8 5 8 C0 2.52380952 0 2.52380952 0 0 Z " fill="#41D1BF" transform="translate(454,219)"/>
<path d="M0 0 C2.37506791 3.56260186 1.86445881 4.94737925 1.2265625 9.01953125 C0.94023551 11.52242408 1.43595305 13.55579654 2 16 C2.03824623 18.33301986 2.04574284 20.66711508 2 23 C2.99 23 3.98 23 5 23 C5 23.66 5 24.32 5 25 C5.99 25.33 6.98 25.66 8 26 C8.66 26.33 9.32 26.66 10 27 C10.625 29.5625 10.625 29.5625 11 32 C11.99 32.33 12.98 32.66 14 33 C14.33 34.65 14.66 36.3 15 38 C6.78876216 31.2969487 -0.51455014 25.01170438 -2 14 C-1.97449453 9.14120787 -1.53881423 4.6164427 0 0 Z " fill="#3378D0" transform="translate(27,239)"/>
<path d="M0 0 C0.66 0.66 1.32 1.32 2 2 C1.625 4.625 1.625 4.625 1 7 C0.01 7.33 -0.98 7.66 -2 8 C-4.50733892 9.67155928 -6.41105909 11.43161205 -8.5 13.625 C-10.95646358 15.9586404 -11.77200874 16.59650109 -15 17 C-15.9075 17.185625 -16.815 17.37125 -17.75 17.5625 C-18.4925 17.706875 -19.235 17.85125 -20 18 C-19.06409496 16.8944811 -18.12620142 15.79064547 -17.1875 14.6875 C-16.66542969 14.07261719 -16.14335937 13.45773437 -15.60546875 12.82421875 C-12.89509757 9.74455126 -10.78435823 7.73249142 -7 6.0625 C-3.76634692 4.52294826 -1.82399116 3.19198453 0 0 Z " fill="#02AACA" transform="translate(374,288)"/>
<path d="M0 0 C0.66 0 1.32 0 2 0 C2 0.99 2 1.98 2 3 C5 4.33333333 5 4.33333333 8 3 C8.2475 3.928125 8.495 4.85625 8.75 5.8125 C10.59925082 10.52808959 13.55563478 11.93654472 18 14 C13.95326402 15.61869439 10.95775491 14.50121738 7 13 C1.41908263 9.48608906 1.41908263 9.48608906 0.40625 5.89453125 C0.125 3.6875 0.125 3.6875 0 0 Z " fill="#0283D3" transform="translate(318,365)"/>
<path d="M0 0 C-0.99 1.98 -1.98 3.96 -3 6 C-3.66 5.67 -4.32 5.34 -5 5 C-10.23381585 6.82574972 -13.00038047 9.97978002 -16.38671875 14.16015625 C-18 16 -18 16 -21 18 C-21.2475 18.66 -21.495 19.32 -21.75 20 C-23 22 -23 22 -26.625 23.25 C-27.73875 23.4975 -28.8525 23.745 -30 24 C-27.19255243 20.13975959 -24.03292666 17.23947726 -20.42578125 14.17578125 C-16.82749396 10.94833194 -13.47421593 7.48346374 -10.125 3.99975586 C-4.68956151 -1.56318717 -4.68956151 -1.56318717 0 0 Z " fill="#1C90BC" transform="translate(122,148)"/>
<path d="M0 0 C0.598125 0.309375 1.19625 0.61875 1.8125 0.9375 C4.08956772 2.10209704 4.08956772 2.10209704 7 3 C7.39801392 6.4826218 7.12373826 7.80799236 5.1875 10.8125 C4.465625 11.534375 3.74375 12.25625 3 13 C2.01 13 1.02 13 0 13 C-0.268125 13.94875 -0.53625 14.8975 -0.8125 15.875 C-2 19 -2 19 -5 21 C-5.33 21.99 -5.66 22.98 -6 24 C-8.31 24.33 -10.62 24.66 -13 25 C-7.72898586 18.58930713 -1.90871848 12.81409488 4 7 C2.79618552 4.50638429 1.54571278 2.31856917 0 0 Z " fill="#23BCC0" transform="translate(404,244)"/>
<path d="M0 0 C1.01424133 3.04272399 1.01481296 3.98779457 0.47094727 7.01245117 C0.26061607 8.2133564 0.26061607 8.2133564 0.04603577 9.43852234 C-0.11224197 10.29798965 -0.27051971 11.15745697 -0.43359375 12.04296875 C-0.66877464 13.36836418 -0.66877464 13.36836418 -0.90870667 14.72053528 C-1.41137909 17.54414626 -1.92430804 20.36578393 -2.4375 23.1875 C-2.77997365 25.10079044 -3.12177888 27.01420066 -3.46289062 28.92773438 C-4.30084211 33.61991494 -5.14799715 38.31035139 -6 43 C-6.33 43 -6.66 43 -7 43 C-7.02693575 40.87506859 -7.04636628 38.75004088 -7.0625 36.625 C-7.07410156 35.44164062 -7.08570313 34.25828125 -7.09765625 33.0390625 C-7 30 -7 30 -6 28 C-6.04125 26.865625 -6.0825 25.73125 -6.125 24.5625 C-6.21463958 19.14428545 -4.73020093 14.10095508 -3 9 C-2.67 8.67 -2.34 8.34 -2 8 C-1.835 6.845 -1.67 5.69 -1.5 4.5 C-1 1 -1 1 0 0 Z " fill="#2E87C9" transform="translate(262,332)"/>
<path d="M0 0 C-0.33 0.66 -0.66 1.32 -1 2 C-2.32 2 -3.64 2 -5 2 C-5.33 2.66 -5.66 3.32 -6 4 C-7.33038449 4.3449145 -8.66457061 4.67516582 -10 5 C-14.66716095 6.94465039 -16.97276433 8.9997243 -20 13 C-20.66 13 -21.32 13 -22 13 C-22 13.99 -22 14.98 -22 16 C-22.66 16 -23.32 16 -24 16 C-23.67702684 10.67094291 -20.65038264 7.57950143 -17 4 C-11.73714529 0.05285897 -6.41318361 -0.15269485 0 0 Z " fill="#2ECEBE" transform="translate(273,89)"/>
<path d="M0 0 C0.90829897 2.96843595 1.02048967 5.07939061 0.47094727 8.12597656 C0.33072647 8.92650452 0.19050568 9.72703247 0.04603577 10.55181885 C-0.11224197 11.40612488 -0.27051971 12.26043091 -0.43359375 13.140625 C-0.59038101 14.02280701 -0.74716827 14.90498901 -0.90870667 15.81390381 C-1.41057138 18.6273864 -1.92387739 21.43864261 -2.4375 24.25 C-2.78005318 26.15871859 -3.12185904 28.06757146 -3.46289062 29.9765625 C-4.29993448 34.65264322 -5.14724439 39.32676012 -6 44 C-7.74627478 41.38058783 -8.38722388 39.96175123 -9 37 C-8.01 36.505 -8.01 36.505 -7 36 C-6.60493015 33.64914033 -6.60493015 33.64914033 -6.5 30.875 C-6.17148669 26.31687777 -5.27810188 22.3934752 -4 18 C-3.82914892 16.35657533 -3.6852025 14.71021928 -3.5625 13.0625 C-3.16425395 8.24667274 -1.88909674 4.4352706 0 0 Z " fill="#50BACF" transform="translate(284,206)"/>
<path d="M0 0 C5.28854425 3.52569617 7.80501937 8.01931776 9.6015625 14.00390625 C10.59658378 18.98876774 10.22538154 24.09847383 9 29 C6.16778292 26.16778292 6.62897528 24.01014994 6.4375 20.0625 C6.20155421 14.94114435 6.20155421 14.94114435 5 10 C4.34 9.67 3.68 9.34 3 9 C3 7.35 3 5.7 3 4 C2.01 4 1.02 4 0 4 C0 2.68 0 1.36 0 0 Z " fill="#3279D0" transform="translate(176,336)"/>
<path d="M0 0 C0.66 0.33 1.32 0.66 2 1 C1.75 2.875 1.75 2.875 1 5 C-0.875 6.0625 -0.875 6.0625 -3 7 C-4.77190909 8.35444301 -4.77190909 8.35444301 -6 10 C-6 10.99 -6 11.98 -6 13 C-6.99 13 -7.98 13 -9 13 C-12.35505851 15.02701452 -15.3703051 17.07811678 -18 20 C-18.66 19.67 -19.32 19.34 -20 19 C-17.0457194 16.01679077 -14.08590637 13.03913197 -11.125 10.0625 C-10.28324219 9.21236328 -9.44148438 8.36222656 -8.57421875 7.48632812 C-7.76855469 6.67744141 -6.96289062 5.86855469 -6.1328125 5.03515625 C-5.38918457 4.2862915 -4.64555664 3.53742676 -3.87939453 2.76586914 C-2 1 -2 1 0 0 Z " fill="#0B89C6" transform="translate(94,171)"/>
<path d="M0 0 C0.33 0 0.66 0 1 0 C0.88496731 2.5216376 0.75825223 5.0418119 0.625 7.5625 C0.5940625 8.26697266 0.563125 8.97144531 0.53125 9.69726562 C0.27152262 14.39400234 -0.66163178 18.46754293 -2 23 C-1.70250054 24.67343448 -1.37872934 26.34305915 -1 28 C-1.66 28.66 -2.32 29.32 -3 30 C-3.64767793 32.57061311 -3.64767793 32.57061311 -4 35 C-4.66 35 -5.32 35 -6 35 C-5.37706053 27.59029898 -4.2966758 20.31964093 -3 13 C-2.82210937 11.96488281 -2.64421875 10.92976562 -2.4609375 9.86328125 C-1.12864688 2.25729376 -1.12864688 2.25729376 0 0 Z " fill="#2EB8C4" transform="translate(241,145)"/>
<path d="M0 0 C0.33 0 0.66 0 1 0 C1.53947692 18.52204104 1.53947692 18.52204104 -1.265625 25.23046875 C-2.31051879 27.74821814 -2.65509418 30.30973459 -3 33 C-3.66 33 -4.32 33 -5 33 C-4.2761532 25.75391255 -3.16180401 18.6146037 -1.9375 11.4375 C-1.75123047 10.33341797 -1.56496094 9.22933594 -1.37304688 8.09179688 C-0.9175991 5.39414468 -0.45986976 2.69690126 0 0 Z " fill="#36B4C9" transform="translate(234,181)"/>
<path d="M0 0 C0.66 0.33 1.32 0.66 2 1 C-1.16887304 23.80127986 -1.16887304 23.80127986 -3 33 C-5 31 -5 31 -5.046875 27.91796875 C-4.94890625 26.68691406 -4.8509375 25.45585937 -4.75 24.1875 C-4.66234375 22.96417969 -4.5746875 21.74085938 -4.484375 20.48046875 C-4.03651186 17.26235539 -3.24165895 14.96671184 -2 12 C-1.57426894 9.90550831 -1.19999506 7.79996789 -0.875 5.6875 C-0.70742188 4.61886719 -0.53984375 3.55023438 -0.3671875 2.44921875 C-0.24601562 1.64097656 -0.12484375 0.83273438 0 0 Z " fill="#41AECF" transform="translate(275,251)"/>
<path d="M0 0 C1.32 0.33 2.64 0.66 4 1 C2.75443908 1.81928886 1.50333365 2.63015186 0.25 3.4375 C-0.44609375 3.88996094 -1.1421875 4.34242188 -1.859375 4.80859375 C-6.87399814 7.59957926 -12.39583417 7.59788398 -18 7 C-21.49526101 5.98555698 -24.81166145 4.76485811 -28 3 C-28.33 2.34 -28.66 1.68 -29 1 C-23.25 1.75 -23.25 1.75 -21 4 C-19.06318864 4.27654388 -19.06318864 4.27654388 -16.8671875 4.1953125 C-16.06152344 4.18886719 -15.25585938 4.18242187 -14.42578125 4.17578125 C-13.58402344 4.15902344 -12.74226563 4.14226562 -11.875 4.125 C-11.02550781 4.11597656 -10.17601562 4.10695313 -9.30078125 4.09765625 C-7.20040116 4.07405647 -5.10016556 4.03818483 -3 4 C-3 3.34 -3 2.68 -3 2 C-2.01 2 -1.02 2 0 2 C0 1.34 0 0.68 0 0 Z " fill="#2465C7" transform="translate(172,376)"/>
<path d="M0 0 C0.86625 0.556875 0.86625 0.556875 1.75 1.125 C2 3.4375 2 3.4375 1.75 6.125 C-0.0625 7.9375 -0.0625 7.9375 -2.25 9.125 C-3.24 9.125 -4.23 9.125 -5.25 9.125 C-6.58454536 6.9269253 -7.27787435 5.59886397 -7.125 3 C-6.25 1.125 -6.25 1.125 -4.4375 -0.25 C-2.25 -0.875 -2.25 -0.875 0 0 Z " fill="#1291CD" transform="translate(359.25,368.875)"/>
<path d="M0 0 C1.77429146 3.35304876 2.59593314 6.20177155 3 10 C2.67 10.99 2.34 11.98 2 13 C1.34 13 0.68 13 0 13 C0.061875 14.010625 0.12375 15.02125 0.1875 16.0625 C-0.02642827 20.55499372 -1.04613532 23.01085961 -3 27 C-4.12800972 23.58434439 -3.866975 21.09259089 -3.22265625 17.578125 C-3.03896484 16.55332031 -2.85527344 15.52851563 -2.66601562 14.47265625 C-2.46685547 13.40917969 -2.26769531 12.34570312 -2.0625 11.25 C-1.86720703 10.17105469 -1.67191406 9.09210938 -1.47070312 7.98046875 C-0.98784723 5.31887282 -0.49735831 2.65891745 0 0 Z " fill="#3CA8CF" transform="translate(225,233)"/>
<path d="M0 0 C0.33 0 0.66 0 1 0 C1.22422808 7.36215523 0.83987998 13.87924313 -1 21 C-1.35036606 22.99708656 -1.69169075 24.99598989 -2 27 C-4.50014115 23.25904806 -3.90042304 20.55790579 -3.125 16.25 C-2.92132813 15.07953125 -2.71765625 13.9090625 -2.5078125 12.703125 C-2.34023438 11.81109375 -2.17265625 10.9190625 -2 10 C-2.66 10 -3.32 10 -4 10 C-4 10.66 -4 11.32 -4 12 C-4.66 12 -5.32 12 -6 12 C-6 10.35 -6 8.7 -6 7 C-4.33333333 7 -2.66666667 7 -1 7 C-0.67 4.69 -0.34 2.38 0 0 Z " fill="#05CABC" transform="translate(294,132)"/>
<path d="M0 0 C0.66 0 1.32 0 2 0 C1.88535985 2.70912781 1.75862846 5.41679661 1.625 8.125 C1.5940625 8.88554687 1.563125 9.64609375 1.53125 10.4296875 C1.297631 14.94632158 0.67345883 18.74152347 -1 23 C-1.66 23 -2.32 23 -3 23 C-3.33 24.32 -3.66 25.64 -4 27 C-3.27643663 17.88310149 -1.65707093 8.98361723 0 0 Z " fill="#1B6DC4" transform="translate(207,341)"/>
<path d="M0 0 C6.41069287 5.27101414 12.18590512 11.09128152 18 17 C17.34 17.66 16.68 18.32 16 19 C15.67 18.01 15.34 17.02 15 16 C13.66799393 15.66140182 12.33447141 15.32874752 11 15 C9.296875 13.44140625 9.296875 13.44140625 7.75 11.5625 C7.22921875 10.94503906 6.7084375 10.32757813 6.171875 9.69140625 C5 8 5 8 5 6 C3.35 6 1.7 6 0 6 C-1.24546405 3.50907189 -0.7767578 2.58919267 0 0 Z " fill="#2D7EC9" transform="translate(98,258)"/>
<path d="M0 0 C5.7784424 1.23823766 8.86529984 4.16010464 12 9 C12.66796875 11.2265625 12.66796875 11.2265625 13 13 C12.401875 12.814375 11.80375 12.62875 11.1875 12.4375 C8.83591238 11.77906313 8.83591238 11.77906313 6 13 C6.04125 12.0925 6.0825 11.185 6.125 10.25 C6.00468444 7.1217954 5.6085292 5.61385994 4 3 C2.02 3.66 0.04 4.32 -2 5 C-1.34 3.35 -0.68 1.7 0 0 Z " fill="#25DAB8" transform="translate(403,170)"/>
<path d="M0 0 C0.99 0 1.98 0 3 0 C2.42308522 3.16854747 1.58353113 4.78226459 -0.72265625 7.015625 C-1.52993164 7.80839844 -1.52993164 7.80839844 -2.35351562 8.6171875 C-2.91748047 9.15601563 -3.48144531 9.69484375 -4.0625 10.25 C-4.63033203 10.80429688 -5.19816406 11.35859375 -5.78320312 11.9296875 C-7.18212469 13.29334214 -8.59019114 14.64760417 -10 16 C-11 13 -11 13 -10 10 C-9.01 10 -8.02 10 -7 10 C-6.731875 9.401875 -6.46375 8.80375 -6.1875 8.1875 C-5.00082594 6.00152146 -3.90400887 4.58667406 -2 3 C-1.34 3 -0.68 3 0 3 C0 2.01 0 1.02 0 0 Z " fill="#279CC8" transform="translate(147,188)"/>
<path d="M0 0 C0.33 0.66 0.66 1.32 1 2 C0.0625 4.125 0.0625 4.125 -1 6 C-1.66 5.67 -2.32 5.34 -3 5 C-3.2475 5.5878125 -3.495 6.175625 -3.75 6.78125 C-5.5806943 10.03073238 -8.25615757 11.89836274 -11.125 14.21875 C-13.05554271 16.05276558 -13.8716709 17.62351924 -15 20 C-17.125 21.25 -17.125 21.25 -19 22 C-17.66811127 18.0555603 -16.05347394 15.6940678 -13.0859375 12.79296875 C-12.32539062 12.04208984 -11.56484375 11.29121094 -10.78125 10.51757812 C-9.9871875 9.74865234 -9.193125 8.97972656 -8.375 8.1875 C-7.17230469 7.00510742 -7.17230469 7.00510742 -5.9453125 5.79882812 C-3.97014683 3.85893327 -1.98831573 1.92639916 0 0 Z " fill="#2875C9" transform="translate(47,217)"/>
<path d="M0 0 C0.66 0.33 1.32 0.66 2 1 C-2.62 5.62 -7.24 10.24 -12 15 C-13 11 -13 11 -12.03125 9.21875 C-8.37075248 5.11002829 -5.02082925 2.31730581 0 0 Z " fill="#33A9CE" transform="translate(394,339)"/>
<path d="M0 0 C3 1 3 1 4.25 2.625 C5.30061312 5.95194155 4.64998375 8.62008449 4 12 C2.02 11.01 0.04 10.02 -2 9 C-1.34 6.03 -0.68 3.06 0 0 Z " fill="#0B74C8" transform="translate(211,323)"/>
<path d="M0 0 C0.33 0 0.66 0 1 0 C1.29162929 4.95769796 1.12940055 8.02806853 -2 12 C-2.66 12 -3.32 12 -4 12 C-4.33 13.98 -4.66 15.96 -5 18 C-5.33 18 -5.66 18 -6 18 C-5.85764543 16.27054347 -5.71095618 14.54144346 -5.5625 12.8125 C-5.48128906 11.84957031 -5.40007812 10.88664062 -5.31640625 9.89453125 C-5.02333849 7.21350398 -4.57296246 4.6337014 -4 2 C-2.68 2 -1.36 2 0 2 C0 1.34 0 0.68 0 0 Z " fill="#3E9AD5" transform="translate(215,311)"/>
<path d="M0 0 C4.87169618 3.99479086 9.04248205 8.10021587 13 13 C11.68 13.33 10.36 13.66 9 14 C8.608125 13.175 8.21625 12.35 7.8125 11.5 C7.214375 10.675 6.61625 9.85 6 9 C3.37305578 8.58219121 3.37305578 8.58219121 1 9 C0.67 6.03 0.34 3.06 0 0 Z " fill="#38E3C1" transform="translate(361,126)"/>
<path d="M0 0 C0.83370183 3.01954193 1.26633213 5.94568571 1.5625 9.0625 C1.64628906 9.91972656 1.73007812 10.77695313 1.81640625 11.66015625 C2 14 2 14 2 17 C2.1496644 18.39775858 2.31720487 19.7936871 2.5 21.1875 C2.665 22.445625 2.83 23.70375 3 25 C-0.85954067 21.61760035 -1.45954629 17.97065174 -2 13 C-1.88915281 8.48134691 -1.43108484 4.29325452 0 0 Z " fill="#42D4C7" transform="translate(316,133)"/>
<path d="M0 0 C1.00363252 3.19350163 0.96578397 5.58061685 0.4765625 8.87890625 C0.3425 9.79994141 0.2084375 10.72097656 0.0703125 11.66992188 C-0.07664062 12.62447266 -0.22359375 13.57902344 -0.375 14.5625 C-0.51421875 15.52091797 -0.6534375 16.47933594 -0.796875 17.46679688 C-1.84852046 24.54556139 -1.84852046 24.54556139 -3 28 C-3.99 27.67 -4.98 27.34 -6 27 C-6 25.02 -6 23.04 -6 21 C-5.34 21 -4.68 21 -4 21 C-3.87153687 20.15236084 -3.87153687 20.15236084 -3.74047852 19.28759766 C-3.35130182 16.73285367 -2.95696515 14.17893253 -2.5625 11.625 C-2.42779297 10.73554688 -2.29308594 9.84609375 -2.15429688 8.9296875 C-2.02216797 8.07890625 -1.89003906 7.228125 -1.75390625 6.3515625 C-1.63345947 5.56604004 -1.5130127 4.78051758 -1.38891602 3.97119141 C-1 2 -1 2 0 0 Z " fill="#3EC1BB" transform="translate(294,144)"/>
<path d="M0 0 C1.32 0 2.64 0 4 0 C4 0.66 4 1.32 4 2 C4.99 2.33 5.98 2.66 7 3 C7.66 3.33 8.32 3.66 9 4 C9.625 6.5625 9.625 6.5625 10 9 C10.99 8.67 11.98 8.34 13 8 C14 9 14 9 14.0625 11.5625 C14.041875 12.366875 14.02125 13.17125 14 14 C9.10565787 9.90473413 4.29279666 5.73642915 0 1 C0 0.67 0 0.34 0 0 Z " fill="#3B77D7" transform="translate(102,337)"/>
<path d="M0 0 C0.33 0 0.66 0 1 0 C0.67 5.94 0.34 11.88 0 18 C0.66 18 1.32 18 2 18 C2.33 20.64 2.66 23.28 3 26 C-0.71613172 23.29735875 -1.31492271 19.29520368 -2 15 C-2.50091147 9.62286875 -1.6905 5.07149999 0 0 Z " fill="#439FD1" transform="translate(316,345)"/>
<path d="M0 0 C0 4.47856707 -2.04544929 6.98759773 -5.0625 10.1875 C-5.701875 10.785625 -6.34125 11.38375 -7 12 C-7.66 12.66 -8.32 13.32 -9 14 C-10.98356483 14.71408334 -12.98315437 15.38617742 -15 16 C-10.30233025 10.33870569 -5.25276628 5.14771096 0 0 Z " fill="#27AABD" transform="translate(379,280)"/>
<path d="M0 0 C0 4.33401335 -0.43063139 5.63324113 -3 9 C-5.6875 10.3125 -5.6875 10.3125 -8 11 C-7.67 8.69 -7.34 6.38 -7 4 C-6.34 4 -5.68 4 -5 4 C-5 3.01 -5 2.02 -5 1 C-3 0 -3 0 0 0 Z " fill="#04CFBE" transform="translate(256,101)"/>
<path d="M0 0 C0.33 0.66 0.66 1.32 1 2 C1.99 2.33 2.98 2.66 4 3 C4.66 3.33 5.32 3.66 6 4 C6.625 6.5625 6.625 6.5625 7 9 C7.99 9.33 8.98 9.66 10 10 C10.33 11.65 10.66 13.3 11 15 C1.68456376 7.18791946 1.68456376 7.18791946 -1 4 C-0.8125 1.6875 -0.8125 1.6875 0 0 Z " fill="#1864CD" transform="translate(31,262)"/>
<path d="M0 0 C0.66 0 1.32 0 2 0 C2 0.99 2 1.98 2 3 C2.66 3 3.32 3 4 3 C4 3.66 4 4.32 4 5 C4.99 5.33 5.98 5.66 7 6 C6.67 6.99 6.34 7.98 6 9 C7.87197454 11.69433317 7.87197454 11.69433317 10 14 C6.508263 12.44811689 3.67633198 10.74866528 1 8 C0.27797274 5.26885342 0.14242819 2.84856385 0 0 Z " fill="#2790CE" transform="translate(318,365)"/>
<path d="M0 0 C0.33 0 0.66 0 1 0 C1.05416741 2.72943537 1.09375225 5.45778564 1.125 8.1875 C1.15013672 9.34088867 1.15013672 9.34088867 1.17578125 10.51757812 C1.21266851 14.8149434 0.9958504 18.07901831 -1 22 C-1.66 22 -2.32 22 -3 22 C-2.68905914 19.45813394 -2.37629464 16.91651402 -2.0625 14.375 C-1.97548828 13.66214844 -1.88847656 12.94929688 -1.79882812 12.21484375 C-1.29217395 8.12408039 -0.7110957 4.06157365 0 0 Z " fill="#4DA9D3" transform="translate(220,261)"/>
<path d="M0 0 C2.31 0 4.62 0 7 0 C8.25664978 2.90600261 9 4.79604584 9 8 C9.99 8.33 10.98 8.66 12 9 C11.34 9.66 10.68 10.32 10 11 C8.33035479 9.35718838 6.6643536 7.71067239 5 6.0625 C4.071875 5.14597656 3.14375 4.22945313 2.1875 3.28515625 C0 1 0 1 0 0 Z " fill="#296EDB" transform="translate(125,360)"/>
<path d="M0 0 C0 3.10551666 -0.5393715 4.35261084 -2 7 C-2.99 7 -3.98 7 -5 7 C-5.54372951 10.05847848 -6 12.88772805 -6 16 C-6.99 16.33 -7.98 16.66 -9 17 C-9.5598619 14.13848362 -9.74646002 12.77605065 -9 10 C-6.29513883 6.36715528 -3.22165243 3.17690726 0 0 Z " fill="#2391C3" transform="translate(326,333)"/>
<path d="M0 0 C1.11375 0.495 1.11375 0.495 2.25 1 C5.13883312 2.22782871 5.13883312 2.22782871 9 2 C9.99 3.485 9.99 3.485 11 5 C10.67 5.99 10.34 6.98 10 8 C5.60249328 7.49259538 3.13051078 4.91706686 0 2 C0 1.34 0 0.68 0 0 Z " fill="#3372D4" transform="translate(92,327)"/>
<path d="M0 0 C2.97 0.33 5.94 0.66 9 1 C9 1.66 9 2.32 9 3 C9.66 3 10.32 3 11 3 C10.67 4.98 10.34 6.96 10 9 C8.70391053 8.06862408 7.41328368 7.1296434 6.125 6.1875 C5.40570313 5.66542969 4.68640625 5.14335937 3.9453125 4.60546875 C2 3 2 3 0 0 Z " fill="#2674D6" transform="translate(50,286)"/>
<path d="M0 0 C0.66 1.32 1.32 2.64 2 4 C-1.96 7.96 -5.92 11.92 -10 16 C-10.66 15.01 -11.32 14.02 -12 13 C-11.34 13 -10.68 13 -10 13 C-10 12.34 -10 11.68 -10 11 C-9.01 11 -8.02 11 -7 11 C-6.34 9.68 -5.68 8.36 -5 7 C-4.34 7 -3.68 7 -3 7 C-3 6.01 -3 5.02 -3 4 C-2.01 4 -1.02 4 0 4 C0 2.68 0 1.36 0 0 Z " fill="#2B8CCB" transform="translate(115,220)"/>
<path d="M0 0 C0.33 0 0.66 0 1 0 C1.09940941 6.10815581 1.06545768 11.96240649 0 18 C-0.2784375 19.7015625 -0.2784375 19.7015625 -0.5625 21.4375 C-0.7790625 22.7059375 -0.7790625 22.7059375 -1 24 C-2.7081287 21.06333258 -3.22746216 19.29858228 -2.75 15.9375 C-2.64300781 15.1640625 -2.53601563 14.390625 -2.42578125 13.59375 C-1.67993992 9.05027621 -0.87044134 4.52122445 0 0 Z " fill="#23BFBE" transform="translate(244,125)"/>
<path d="M0 0 C0.99 0.33 1.98 0.66 3 1 C3.6875 3.0625 3.6875 3.0625 4 5 C4.99 4.67 5.98 4.34 7 4 C7.99 5.485 7.99 5.485 9 7 C8.01 7.99 7.02 8.98 6 10 C3.36 7.36 0.72 4.72 -2 2 C-1.34 1.34 -0.68 0.68 0 0 Z " fill="#3675DC" transform="translate(118,350)"/>
<path d="M0 0 C-0.54536156 3.81753091 -2.19537375 5.45033977 -5 8 C-5.66 8.66 -6.32 9.32 -7 10 C-8.98356483 10.71408334 -10.98315437 11.38617742 -13 12 C-2.93659942 0 -2.93659942 0 0 0 Z " fill="#2397C0" transform="translate(340,321)"/>
<path d="M0 0 C0.99 0.66 1.98 1.32 3 2 C2.01 2.33 1.02 2.66 0 3 C0 4.32 0 5.64 0 7 C-4.455 8.485 -4.455 8.485 -9 10 C-2.97321429 2.90178571 -2.97321429 2.90178571 0 0 Z " fill="#3DB4C7" transform="translate(139,125)"/>
<path d="M0 0 C1.0828125 0.2475 1.0828125 0.2475 2.1875 0.5 C4.86427545 0.97587119 7.28949487 1.077443 10 1 C5.36539076 4.08973949 0.05160346 4.48492575 -5.43359375 3.61328125 C-7.30714913 3.14238765 -9.1573295 2.58009997 -11 2 C-11 1.67 -11 1.34 -11 1 C-9.741875 0.979375 -8.48375 0.95875 -7.1875 0.9375 C-6.47980469 0.92589844 -5.77210938 0.91429687 -5.04296875 0.90234375 C-3 1 -3 1 0 2 C0 1.34 0 0.68 0 0 Z " fill="#6EA2DC" transform="translate(227,409)"/>
<path d="M0 0 C1.98 0.66 3.96 1.32 6 2 C6.33 3.65 6.66 5.3 7 7 C6.01 7.495 6.01 7.495 5 8 C1.9789286 5.9859524 0.39332574 4.36720387 -1 1 C-0.67 0.67 -0.34 0.34 0 0 Z " fill="#055DDB" transform="translate(49,280)"/>
<path d="M0 0 C1.98 0 3.96 0 6 0 C5.5206753 4.31392226 4.2542015 6.16569547 1 9 C0.34 8.67 -0.32 8.34 -1 8 C-0.67 5.36 -0.34 2.72 0 0 Z " fill="#28B1C8" transform="translate(178,152)"/>
<path d="M0 0 C0.43570312 0.37511719 0.87140625 0.75023437 1.3203125 1.13671875 C5.18607599 4.45859777 9.07657648 7.74642927 13 11 C11.3125 11.8125 11.3125 11.8125 9 12 C5.54670456 9.06469887 2.66987695 5.65872026 0 2 C0 1.34 0 0.68 0 0 Z " fill="#3EDCBE" transform="translate(394,159)"/>
<path d="M0 0 C1.89213369 2.38573379 3.02391783 4.07175348 4 7 C3.34 7 2.68 7 2 7 C1.87625 7.763125 1.7525 8.52625 1.625 9.3125 C1 12 1 12 -1 15 C-1.02715383 13.25008666 -1.04646551 11.50005055 -1.0625 9.75 C-1.07410156 8.77546875 -1.08570313 7.8009375 -1.09765625 6.796875 C-1.01195577 4.34241322 -0.70706066 2.33831086 0 0 Z " fill="#0565D5" transform="translate(204,364)"/>
<path d="M0 0 C0.33 0.66 0.66 1.32 1 2 C-0.40974317 5.89752524 -1.4500961 7.65631006 -5 9.875 C-8 11 -8 11 -11 11 C-7.37 7.37 -3.74 3.74 0 0 Z " fill="#2BA5C3" transform="translate(353,306)"/>
<path d="M0 0 C0.99 0 1.98 0 3 0 C3.10251672 5.12583611 3.03590199 9.94997778 2 15 C1.67 15 1.34 15 1 15 C1 12.69 1 10.38 1 8 C0.01 7.67 -0.98 7.34 -2 7 C-1.34 6.67 -0.68 6.34 0 6 C0 4.02 0 2.04 0 0 Z " fill="#1172CC" transform="translate(252,372)"/>
<path d="M0 0 C3 1 3 1 4 2 C4.66 2 5.32 2 6 2 C6 3.98 6 5.96 6 8 C2.66666667 6.33333333 -0.66666667 4.66666667 -4 3 C-2.1875 1.4375 -2.1875 1.4375 0 0 Z " fill="#0359DC" transform="translate(106,334)"/>
<path d="M0 0 C4.91935902 4.11619836 9.52647956 8.40410362 14 13 C13.67 13.66 13.34 14.32 13 15 C10.95880212 13.38405168 8.95927063 11.7143618 7 10 C7 9.34 7 8.68 7 8 C6.34 8 5.68 8 5 8 C0 2.52380952 0 2.52380952 0 0 Z " fill="#26CEB4" transform="translate(454,219)"/>
<path d="M0 0 C0.91145054 2.97022221 1.01801972 5.06485586 0.44140625 8.109375 C0.30283203 8.86347656 0.16425781 9.61757812 0.02148438 10.39453125 C-0.20571289 11.56048828 -0.20571289 11.56048828 -0.4375 12.75 C-0.58509766 13.54277344 -0.73269531 14.33554688 -0.88476562 15.15234375 C-1.24903966 17.10297246 -1.62352512 19.0516893 -2 21 C-2.33 21 -2.66 21 -3 21 C-3.31806054 13.2723068 -3.32270836 7.06075526 0 0 Z " fill="#64CBD7" transform="translate(284,206)"/>
<path d="M0 0 C0.474375 0.639375 0.94875 1.27875 1.4375 1.9375 C5.02631188 6.22656786 9.00987556 10.08660872 13 14 C12.67 14.66 12.34 15.32 12 16 C7.71 11.71 3.42 7.42 -1 3 C-0.67 2.01 -0.34 1.02 0 0 Z " fill="#3BC8BC" transform="translate(320,157)"/>
<path d="M0 0 C0.66 0.66 1.32 1.32 2 2 C3.2375 2.2165625 3.2375 2.2165625 4.5 2.4375 C7 3 7 3 9 6 C6.10765685 6.82638376 4.11257569 7 1 7 C0.33333333 5 -0.33333333 3 -1 1 C-0.67 0.67 -0.34 0.34 0 0 Z " fill="#13DFB9" transform="translate(369,137)"/>
<path d="M0 0 C1.16691444 3.48419134 0.85285758 6.10222787 0.1875 9.6875 C0.01605469 10.66074219 -0.15539062 11.63398438 -0.33203125 12.63671875 C-0.55246094 13.41660156 -0.77289063 14.19648438 -1 15 C-1.99 15.495 -1.99 15.495 -3 16 C-3.32712342 9.86946489 -3.39366878 5.37330889 0 0 Z " fill="#389FC9" transform="translate(270,286)"/>
<path d="M0 0 C0.99 0.33 1.98 0.66 3 1 C2.67 2.65 2.34 4.3 2 6 C2.66 6 3.32 6 4 6 C4 6.66 4 7.32 4 8 C3.01 8.495 3.01 8.495 2 9 C1.835 9.825 1.67 10.65 1.5 11.5 C1.335 12.325 1.17 13.15 1 14 C0.01 14.495 0.01 14.495 -1 15 C-0.67 10.05 -0.34 5.1 0 0 Z " fill="#07ACBF" transform="translate(235,180)"/>
<path d="M0 0 C1.98 0.66 3.96 1.32 6 2 C5.625 3.9375 5.625 3.9375 5 6 C4.01 6.495 4.01 6.495 3 7 C0.375 6.0625 0.375 6.0625 -2 5 C-1.34 3.35 -0.68 1.7 0 0 Z " fill="#0E90CB" transform="translate(130,200)"/>
<path d="M0 0 C4.875 3.625 4.875 3.625 6 7 C5.01 7.33 4.02 7.66 3 8 C0.8125 6.5625 0.8125 6.5625 -1 5 C-0.67 3.35 -0.34 1.7 0 0 Z " fill="#06DAB8" transform="translate(289,95)"/>
<path d="M0 0 C0.66 0.33 1.32 0.66 2 1 C2 1.66 2 2.32 2 3 C-0.64 3.33 -3.28 3.66 -6 4 C-6.33 2.68 -6.66 1.36 -7 0 C-4.30919898 -1.34540051 -2.86443593 -0.71610898 0 0 Z " fill="#0259DA" transform="translate(167,377)"/>
<path d="M0 0 C0.66 0.33 1.32 0.66 2 1 C1.67 2.65 1.34 4.3 1 6 C-0.98 6 -2.96 6 -5 6 C-4.75 4.125 -4.75 4.125 -4 2 C-2.0625 0.6875 -2.0625 0.6875 0 0 Z " fill="#019ECC" transform="translate(349,314)"/>
<path d="M0 0 C0.598125 0.309375 1.19625 0.61875 1.8125 0.9375 C4.08956772 2.10209704 4.08956772 2.10209704 7 3 C7.3125 5.25 7.3125 5.25 7 8 C4.5 10.3125 4.5 10.3125 2 12 C1.34 11.67 0.68 11.34 0 11 C1.32 9.68 2.64 8.36 4 7 C2.79618552 4.50638429 1.54571278 2.31856917 0 0 Z " fill="#37C3C3" transform="translate(404,244)"/>
<path d="M0 0 C0.66 0.33 1.32 0.66 2 1 C-0.625 6.75 -0.625 6.75 -4 9 C-4.33 7.68 -4.66 6.36 -5 5 C-4.34 4.67 -3.68 4.34 -3 4 C-3.33 3.34 -3.66 2.68 -4 2 C-2.125 0.9375 -2.125 0.9375 0 0 Z " fill="#04ABC7" transform="translate(144,123)"/>
<path d="M0 0 C0 3.70411834 -0.75301769 5.078923 -3 8 C-6.1875 9.3125 -6.1875 9.3125 -9 10 C-8.06409496 8.8944811 -7.12620142 7.79064547 -6.1875 6.6875 C-5.66542969 6.07261719 -5.14335937 5.45773437 -4.60546875 4.82421875 C-3.12827531 3.14575321 -1.59960869 1.56117966 0 0 Z " fill="#31A9C7" transform="translate(363,296)"/>
<path d="M0 0 C2 2 2 2 2.08203125 4.0234375 C1.99308594 4.79945313 1.90414062 5.57546875 1.8125 6.375 C1.73644531 7.14585937 1.66039062 7.91671875 1.58203125 8.7109375 C0.90539464 11.37207208 -0.23902749 12.9210082 -2 15 C-1.03644647 4.44191344 -1.03644647 4.44191344 0 0 Z " fill="#5CABD2" transform="translate(214,296)"/>
<path d="M0 0 C0.99 0.33 1.98 0.66 3 1 C2.67 2.65 2.34 4.3 2 6 C0.35 6.33 -1.3 6.66 -3 7 C-2.25 2.25 -2.25 2.25 0 0 Z " fill="#04B0C8" transform="translate(380,281)"/>
<path d="M0 0 C3 0 3 0 6 1 C6 2.65 6 4.3 6 6 C3.03 5.505 3.03 5.505 0 5 C-0.5625 3.0625 -0.5625 3.0625 -1 1 C-0.67 0.67 -0.34 0.34 0 0 Z " fill="#0260DE" transform="translate(42,272)"/>
<path d="M0 0 C0.33 1.32 0.66 2.64 1 4 C0.01 4 -0.98 4 -2 4 C-2.2475 4.598125 -2.495 5.19625 -2.75 5.8125 C-4.16370012 8.28647521 -5.65055383 9.43370255 -8 11 C-8.66 10.67 -9.32 10.34 -10 10 C-6.7 6.7 -3.4 3.4 0 0 Z " fill="#36B9C1" transform="translate(390,269)"/>
<path d="M0 0 C1.32 0.99 2.64 1.98 4 3 C1.75 5.5625 1.75 5.5625 -1 8 C-3.3125 7.8125 -3.3125 7.8125 -5 7 C-4.67 6.01 -4.34 5.02 -4 4 C-2.02 4.495 -2.02 4.495 0 5 C-0.2784375 4.0409375 -0.2784375 4.0409375 -0.5625 3.0625 C-0.706875 2.381875 -0.85125 1.70125 -1 1 C-0.67 0.67 -0.34 0.34 0 0 Z " fill="#1978C9" transform="translate(93,241)"/>
<path d="M0 0 C0.99 0.495 0.99 0.495 2 1 C2.625 3.5625 2.625 3.5625 3 6 C3.66 6 4.32 6 5 6 C4.67 7.65 4.34 9.3 4 11 C4.66 11.33 5.32 11.66 6 12 C5.01 12 4.02 12 3 12 C3 11.34 3 10.68 3 10 C2.34 10 1.68 10 1 10 C0.67 6.7 0.34 3.4 0 0 Z " fill="#045DD5" transform="translate(202,387)"/>
<path d="M0 0 C3.73884332 2.65654657 5.64978174 4.58110387 7 9 C6.01 9.495 6.01 9.495 5 10 C4.34 9.67 3.68 9.34 3 9 C3 7.35 3 5.7 3 4 C2.01 4 1.02 4 0 4 C0 2.68 0 1.36 0 0 Z " fill="#2775CA" transform="translate(176,336)"/>
<path d="M0 0 C0.99 0.33 1.98 0.66 3 1 C2.625 2.9375 2.625 2.9375 2 5 C1.01 5.495 1.01 5.495 0 6 C-0.72159424 7.64363134 -1.39351421 9.31050386 -2 11 C-3.55932272 7.88135455 -2.65549131 5.33704665 -2 2 C-1.34 1.34 -0.68 0.68 0 0 Z " fill="#0667D7" transform="translate(30,237)"/>
<path d="M0 0 C2.31 0.33 4.62 0.66 7 1 C5.35 2.98 3.7 4.96 2 7 C0.5393715 4.35261084 0 3.10551666 0 0 Z " fill="#1E82CB" transform="translate(97,235)"/>
<path d="M0 0 C0.66 0 1.32 0 2 0 C0.5682479 5.01113235 -1.98445693 6.94469549 -6 10 C-6.33 9.34 -6.66 8.68 -7 8 C-6.34 7.01 -5.68 6.02 -5 5 C-4.34 5.33 -3.68 5.66 -3 6 C-3 5.01 -3 4.02 -3 3 C-2.01 3 -1.02 3 0 3 C0 2.01 0 1.02 0 0 Z " fill="#53BACC" transform="translate(407,325)"/>
<path d="M0 0 C2.5 1.25 2.5 1.25 5 3 C5 4.32 5 5.64 5 7 C3.125 6.8125 3.125 6.8125 1 6 C-0.25 3.4375 -0.25 3.4375 -1 1 C-0.67 0.67 -0.34 0.34 0 0 Z " fill="#045AE3" transform="translate(83,313)"/>
<path d="M0 0 C2.97 0.33 5.94 0.66 9 1 C8.67 2.32 8.34 3.64 8 5 C6.35 5 4.7 5 3 5 C3 4.34 3 3.68 3 3 C2.01 2.01 1.02 1.02 0 0 Z " fill="#0BD9B7" transform="translate(275,89)"/>
<path d="M0 0 C0.99 0 1.98 0 3 0 C3.33 1.98 3.66 3.96 4 6 C2.68 6.33 1.36 6.66 0 7 C-0.38133299 5.0085944 -0.71325582 3.00720923 -1 1 C-0.67 0.67 -0.34 0.34 0 0 Z " fill="#0658D9" transform="translate(116,344)"/>
<path d="M0 0 C0.33 0.99 0.66 1.98 1 3 C-0.28965176 4.37562854 -1.62689293 5.70766393 -3 7 C-3.66 7 -4.32 7 -5 7 C-4.625 4.0625 -4.625 4.0625 -4 1 C-2 0 -2 0 0 0 Z " fill="#04A4C5" transform="translate(358,305)"/>
<path d="M0 0 C0.33 0.66 0.66 1.32 1 2 C0.0625 4.125 0.0625 4.125 -1 6 C-1.66 5.67 -2.32 5.34 -3 5 C-3.28875 5.639375 -3.5775 6.27875 -3.875 6.9375 C-5 9 -5 9 -7 10 C-6.42424336 6.64749299 -5.40693737 5.06181371 -2.9375 2.75 C-2.38964844 2.22921875 -1.84179688 1.7084375 -1.27734375 1.171875 C-0.64505859 0.59179688 -0.64505859 0.59179688 0 0 Z " fill="#0F6DC3" transform="translate(47,217)"/>
<path d="M0 0 C-0.33 0.66 -0.66 1.32 -1 2 C-2.32 2 -3.64 2 -5 2 C-5.33 2.66 -5.66 3.32 -6 4 C-9.0625 4.625 -9.0625 4.625 -12 5 C-11 2 -11 2 -8.8125 0.8125 C-5.74609689 -0.07334979 -3.17561845 -0.14770318 0 0 Z " fill="#0AD6B7" transform="translate(273,89)"/>
<path d="M0 0 C1.98 0.66 3.96 1.32 6 2 C3.37801226 4.15377564 1.35595828 5.40072174 -2 6 C-1.34 4.02 -0.68 2.04 0 0 Z " fill="#1A8BC9" transform="translate(350,376)"/>
<path d="M0 0 C1.85776765 3.13498292 2.20140476 5.37471432 2 9 C1.34 9 0.68 9 0 9 C-1.3950848 6.70221327 -2.07438619 5.5207033 -1.6875 2.8125 C-1 1 -1 1 0 0 Z " fill="#038BD3" transform="translate(354,369)"/>
<path d="M0 0 C0.33 0.66 0.66 1.32 1 2 C1.66 2.33 2.32 2.66 3 3 C3.72693904 4.97888961 4.39816251 6.97954558 5 9 C3.85073734 8.04578192 2.70569459 7.08647955 1.5625 6.125 C0.92441406 5.59132813 0.28632812 5.05765625 -0.37109375 4.5078125 C-2 3 -2 3 -3 1 C-2.01 0.67 -1.02 0.34 0 0 Z " fill="#1860C8" transform="translate(63,294)"/>
<path d="M0 0 C2.97 0.495 2.97 0.495 6 1 C6.12375 1.78375 6.2475 2.5675 6.375 3.375 C6.79117993 6.14057822 6.79117993 6.14057822 9 8 C8.01 8 7.02 8 6 8 C4.39453125 6.25 4.39453125 6.25 2.8125 4 C2.28269531 3.2575 1.75289062 2.515 1.20703125 1.75 C0.80871094 1.1725 0.41039062 0.595 0 0 Z " fill="#2E72CC" transform="translate(42,277)"/>
<path d="M0 0 C1.1725131 0.95117134 2.33787015 1.91117009 3.5 2.875 C4.47453125 3.67550781 4.47453125 3.67550781 5.46875 4.4921875 C5.9740625 4.98976562 6.479375 5.48734375 7 6 C7 6.66 7 7.32 7 8 C5.68 8 4.36 8 3 8 C0 2.25 0 2.25 0 0 Z " fill="#4ADECA" transform="translate(447,211)"/>
<path d="M0 0 C2.475 0.99 2.475 0.99 5 2 C4.34 3.32 3.68 4.64 3 6 C1.68 5.67 0.36 5.34 -1 5 C-0.67 3.35 -0.34 1.7 0 0 Z " fill="#06D9B8" transform="translate(442,209)"/>
<path d="M0 0 C0.99 0.33 1.98 0.66 3 1 C3 1.66 3 2.32 3 3 C3.66 3 4.32 3 5 3 C4.71872579 4.48117801 4.42466268 5.95993249 4.125 7.4375 C3.96257812 8.26121094 3.80015625 9.08492187 3.6328125 9.93359375 C3.42398437 10.61550781 3.21515625 11.29742187 3 12 C2.01 12.495 2.01 12.495 1 13 C1.01160156 12.31292969 1.02320313 11.62585938 1.03515625 10.91796875 C1.04417969 10.01691406 1.05320312 9.11585938 1.0625 8.1875 C1.07410156 7.29417969 1.08570313 6.40085938 1.09765625 5.48046875 C1.11009967 2.86586209 1.11009967 2.86586209 0 0 Z " fill="#0FAEBE" transform="translate(280,201)"/>
<path d="M0 0 C1.98 0.495 1.98 0.495 4 1 C4.33 2.32 4.66 3.64 5 5 C3.02 5.33 1.04 5.66 -1 6 C-0.67 4.02 -0.34 2.04 0 0 Z " fill="#01A3C8" transform="translate(161,168)"/>
<path d="M0 0 C0.33 0.66 0.66 1.32 1 2 C0.01 2 -0.98 2 -2 2 C-1.67 2.99 -1.34 3.98 -1 5 C-1.66 5.66 -2.32 6.32 -3 7 C-4.32 6.34 -5.64 5.68 -7 5 C-4.63707344 2.47411298 -3.33537489 1.11179163 0 0 Z " fill="#06A4C5" transform="translate(135,133)"/>
<path d="M0 0 C0.33 0 0.66 0 1 0 C1.2493357 1.60115576 1.47378648 3.20620159 1.6875 4.8125 C1.81511719 5.70582031 1.94273437 6.59914063 2.07421875 7.51953125 C2 10 2 10 0.51953125 11.82421875 C-0.23263672 12.40623047 -0.23263672 12.40623047 -1 13 C-1 11.35 -1 9.7 -1 8 C-1.66 7.67 -2.32 7.34 -3 7 C-2.01 7 -1.02 7 0 7 C0 4.69 0 2.38 0 0 Z " fill="#0562D4" transform="translate(182,355)"/>
<path d="M0 0 C0.99 0.33 1.98 0.66 3 1 C3 1.66 3 2.32 3 3 C2.34 3 1.68 3 1 3 C0.566875 3.94875 0.13375 4.8975 -0.3125 5.875 C-2 9 -2 9 -5 11 C-4.67 9.68 -4.34 8.36 -4 7 C-3.34 7 -2.68 7 -2 7 C-1.855625 6.030625 -1.71125 5.06125 -1.5625 4.0625 C-1 1 -1 1 0 0 Z " fill="#1BAAC6" transform="translate(401,328)"/>
<path d="M0 0 C2.97 0.495 2.97 0.495 6 1 C6.66 3.31 7.32 5.62 8 8 C6.85073734 7.04578192 5.70569459 6.08647955 4.5625 5.125 C3.92441406 4.59132813 3.28632812 4.05765625 2.62890625 3.5078125 C1 2 1 2 0 0 Z " fill="#1860CC" transform="translate(68,303)"/>
<path d="M0 0 C2 1 2 1 3 3 C2.69728039 4.34061543 2.36162029 5.67405895 2 7 C2 7.99 2 8.98 2 10 C1.34 10 0.68 10 0 10 C-0.19412181 8.52168779 -0.38012131 7.04230684 -0.5625 5.5625 C-0.66691406 4.73878906 -0.77132813 3.91507813 -0.87890625 3.06640625 C-0.91886719 2.38449219 -0.95882813 1.70257813 -1 1 C-0.67 0.67 -0.34 0.34 0 0 Z " fill="#0261DA" transform="translate(29,252)"/>
<path d="M0 0 C1.9375 0.375 1.9375 0.375 4 1 C4.33 1.66 4.66 2.32 5 3 C5.99 3.33 6.98 3.66 8 4 C8.33 5.65 8.66 7.3 9 9 C7.87105124 8.06725891 6.74699124 7.12859878 5.625 6.1875 C4.99851562 5.66542969 4.37203125 5.14335937 3.7265625 4.60546875 C2 3 2 3 0 0 Z " fill="#37C8BE" transform="translate(333,173)"/>
<path d="M0 0 C0.66 0 1.32 0 2 0 C1.67 1.98 1.34 3.96 1 6 C-0.65 5.67 -2.3 5.34 -4 5 C-2.71937515 3.2925002 -1.38232443 1.62626404 0 0 Z " fill="#0299CC" transform="translate(112,154)"/>
<path d="M0 0 C1.32 0.66 2.64 1.32 4 2 C1.03 4.475 1.03 4.475 -2 7 C-1.125 1.125 -1.125 1.125 0 0 Z " fill="#14AEBE" transform="translate(418,312)"/>
<path d="M0 0 C0.66 0 1.32 0 2 0 C2 0.66 2 1.32 2 2 C3.32 2.33 4.64 2.66 6 3 C5.01 3 4.02 3 3 3 C3 3.66 3 4.32 3 5 C1.35 5.33 -0.3 5.66 -2 6 C-2 5.34 -2 4.68 -2 4 C-1.34 4 -0.68 4 0 4 C0 2.68 0 1.36 0 0 Z " fill="#028ACC" transform="translate(122,208)"/>
<path d="M0 0 C0.33 0.99 0.66 1.98 1 3 C-1.64 5.31 -4.28 7.62 -7 10 C-7.66 9.67 -8.32 9.34 -9 9 C-6.03 6.03 -3.06 3.06 0 0 Z " fill="#1C84BC" transform="translate(83,181)"/>
<path d="M0 0 C0.99 0.33 1.98 0.66 3 1 C2.01 2.98 1.02 4.96 0 7 C-0.99 6.67 -1.98 6.34 -3 6 C-2.625 3.5625 -2.625 3.5625 -2 1 C-1.34 0.67 -0.68 0.34 0 0 Z " fill="#059DC5" transform="translate(119,147)"/>
<path d="M0 0 C2.63249349 2.45699392 4.78137264 4.56568654 6 8 C5.67 8.99 5.34 9.98 5 11 C4.67 10.01 4.34 9.02 4 8 C3.34 8 2.68 8 2 8 C1.34 5.36 0.68 2.72 0 0 Z " fill="#51BFC6" transform="translate(178,125)"/>
<path d="M0 0 C-0.57344937 2.86724686 -0.8614515 3.8614515 -3 6 C-3.66 5.67 -4.32 5.34 -5 5 C-5 4.01 -5 3.02 -5 2 C-5.66 1.67 -6.32 1.34 -7 1 C-4.57333205 -0.21333397 -2.66500278 0 0 0 Z " fill="#015DDD" transform="translate(80,304)"/>
<path d="M0 0 C0 3.57575896 -1.08840607 5.05295935 -3 8 C-4.32 7.67 -5.64 7.34 -7 7 C-4.69 4.69 -2.38 2.38 0 0 Z " fill="#33ABB9" transform="translate(379,280)"/>
<path d="M0 0 C1.65 0 3.3 0 5 0 C5.66 1.32 6.32 2.64 7 4 C4.69 4 2.38 4 0 4 C0 2.68 0 1.36 0 0 Z " fill="#06D8B8" transform="translate(449,219)"/>
<path d="M0 0 C1.32 0 2.64 0 4 0 C3.67 0.99 3.34 1.98 3 3 C-0.5625 4.1875 -0.5625 4.1875 -4 5 C-2.25 2.5 -2.25 2.5 0 0 Z " fill="#4EA7CE" transform="translate(96,167)"/>
<path d="M0 0 C2.125 0.9375 2.125 0.9375 4 2 C3.67 2.99 3.34 3.98 3 5 C1.35 5 -0.3 5 -2 5 C-2 3.68 -2 2.36 -2 1 C-1.34 0.67 -0.68 0.34 0 0 Z " fill="#07B1C6" transform="translate(171,122)"/>
<path d="M0 0 C4.7517398 0.43197635 6.92000054 1.32769295 10 5 C6.05140217 4.4359146 3.29120954 3.2568294 0 1 C0 0.67 0 0.34 0 0 Z " fill="#1E60C7" transform="translate(143,377)"/>
<path d="M0 0 C1.65 0 3.3 0 5 0 C5 0.66 5 1.32 5 2 C5.66 2.33 6.32 2.66 7 3 C5.35 3.66 3.7 4.32 2 5 C2 4.34 2 3.68 2 3 C1.34 2.67 0.68 2.34 0 2 C0 1.34 0 0.68 0 0 Z " fill="#0454DE" transform="translate(134,366)"/>
<path d="M0 0 C1.32 0.33 2.64 0.66 4 1 C4 1.99 4 2.98 4 4 C4.99 4.33 5.98 4.66 7 5 C6.34 5.66 5.68 6.32 5 7 C3.29115995 5.37660195 1.62553283 3.70680947 0 2 C0 1.34 0 0.68 0 0 Z " fill="#4277D3" transform="translate(130,364)"/>
<path d="M0 0 C-3.465 2.97 -3.465 2.97 -7 6 C-6.75 3.625 -6.75 3.625 -6 1 C-2.69333333 -1.34666667 -2.69333333 -1.34666667 0 0 Z " fill="#3EAFCE" transform="translate(396,340)"/>
<path d="M0 0 C1.14926266 0.95421808 2.29430541 1.91352045 3.4375 2.875 C4.07558594 3.40867187 4.71367188 3.94234375 5.37109375 4.4921875 C7 6 7 6 8 8 C7.01 8 6.02 8 5 8 C5 7.34 5 6.68 5 6 C4.360625 5.7525 3.72125 5.505 3.0625 5.25 C1 4 1 4 0.37109375 1.921875 C0.24863281 1.28765625 0.12617187 0.6534375 0 0 Z " fill="#2B7AC3" transform="translate(116,276)"/>
<path d="M0 0 C0.66 0 1.32 0 2 0 C1.65120368 3.25543229 0.97866739 4.01873107 -1.5625 6.25 C-2.366875 6.8275 -3.17125 7.405 -4 8 C-4 7.01 -4 6.02 -4 5 C-3.34 5 -2.68 5 -2 5 C-2 4.01 -2 3.02 -2 2 C-1.34 2 -0.68 2 0 2 C0 1.34 0 0.68 0 0 Z " fill="#1FC7B9" transform="translate(465,266)"/>
<path d="M0 0 C0.33 0 0.66 0 1 0 C1 2.97 1 5.94 1 9 C0.01 8.67 -0.98 8.34 -2 8 C-2 6.02 -2 4.04 -2 2 C-1.34 2 -0.68 2 0 2 C0 1.34 0 0.68 0 0 Z " fill="#1AB9B6" transform="translate(290,163)"/>
<path d="M0 0 C0.33 0 0.66 0 1 0 C1 2.31 1 4.62 1 7 C-0.32 6.67 -1.64 6.34 -3 6 C-1.125 1.125 -1.125 1.125 0 0 Z " fill="#01A7C9" transform="translate(171,160)"/>
<path d="M0 0 C0.33 0.99 0.66 1.98 1 3 C-0.9375 6.1875 -0.9375 6.1875 -3 9 C-3.33 7.68 -3.66 6.36 -4 5 C-3.34 5 -2.68 5 -2 5 C-2 3.68 -2 2.36 -2 1 C-1.34 0.67 -0.68 0.34 0 0 Z " fill="#3375CC" transform="translate(250,395)"/>
<path d="M0 0 C0.33 0.66 0.66 1.32 1 2 C1.66 2 2.32 2 3 2 C3.33 4.64 3.66 7.28 4 10 C1.2027092 7.93243723 0.97307727 6.85559629 0.3125 3.3125 C0.209375 2.219375 0.10625 1.12625 0 0 Z " fill="#5EADD4" transform="translate(315,361)"/>
<path d="M0 0 C0.99 0.99 1.98 1.98 3 3 C2.01 3.99 1.02 4.98 0 6 C-0.66 5.34 -1.32 4.68 -2 4 C-2 3.01 -2 2.02 -2 1 C-1.34 0.67 -0.68 0.34 0 0 Z " fill="#2169DA" transform="translate(124,354)"/>
<path d="M0 0 C0.33 0 0.66 0 1 0 C1.05399736 1.45792884 1.09279177 2.91642712 1.125 4.375 C1.14820313 5.18710937 1.17140625 5.99921875 1.1953125 6.8359375 C1 9 1 9 -1 11 C-2.60080151 6.99799622 -1.29279692 3.95443764 0 0 Z " fill="#0A78CB" transform="translate(258,345)"/>
<path d="M0 0 C0.66 0 1.32 0 2 0 C2.66 1.98 3.32 3.96 4 6 C2.35 6 0.7 6 -1 6 C-0.67 4.02 -0.34 2.04 0 0 Z " fill="#017ADA" transform="translate(212,324)"/>
<path d="M0 0 C2.0625 0.4375 2.0625 0.4375 4 1 C1.03 3.475 1.03 3.475 -2 6 C-1.125 1.125 -1.125 1.125 0 0 Z " fill="#16A8BB" transform="translate(411,320)"/>
<path d="M0 0 C1.10844919 3.32534757 0.84454356 5.62182575 0 9 C-0.66 9 -1.32 9 -2 9 C-2.33 9.66 -2.66 10.32 -3 11 C-2.44894091 7.0507432 -1.61064629 3.65079826 0 0 Z " fill="#0E7BC4" transform="translate(215,304)"/>
<path d="M0 0 C0.99 0 1.98 0 3 0 C3.1875 2.375 3.1875 2.375 3 5 C2.01 5.66 1.02 6.32 0 7 C0 4.69 0 2.38 0 0 Z " fill="#0E82C6" transform="translate(217,283)"/>
<path d="M0 0 C0.66 0.66 1.32 1.32 2 2 C1.625 5.125 1.625 5.125 1 8 C0.34 7.67 -0.32 7.34 -1 7 C-1.04254356 5.00045254 -1.04080783 2.99958364 -1 1 C-0.67 0.67 -0.34 0.34 0 0 Z " fill="#0D91C0" transform="translate(269,280)"/>
<path d="M0 0 C0.33 0.99 0.66 1.98 1 3 C-0.65 4.65 -2.3 6.3 -4 8 C-4.33 7.01 -4.66 6.02 -5 5 C-3.35 3.35 -1.7 1.7 0 0 Z " fill="#44A1D7" transform="translate(52,211)"/>
<path d="M0 0 C0 3.10551666 -0.5393715 4.35261084 -2 7 C-3.32 6.67 -4.64 6.34 -6 6 C-4.02 4.02 -2.04 2.04 0 0 Z " fill="#4DB6CE" transform="translate(129,135)"/>
<path d="M0 0 C0.99 0.66 1.98 1.32 3 2 C2.01 2.33 1.02 2.66 0 3 C0 4.32 0 5.64 0 7 C-0.99 6.67 -1.98 6.34 -3 6 C-2.42655063 3.13275314 -2.1385485 2.1385485 0 0 Z " fill="#2EB4CC" transform="translate(139,125)"/>
<path d="M0 0 C-0.639375 0.28875 -1.27875 0.5775 -1.9375 0.875 C-4.15206079 1.82823451 -4.15206079 1.82823451 -5 4 C-8.0625 4.625 -8.0625 4.625 -11 5 C-7.17906575 1.05170128 -5.52310605 -0.1453449 0 0 Z " fill="#4CD5BF" transform="translate(266,90)"/>
<path d="M0 0 C1.9375 0.8125 1.9375 0.8125 4 2 C4.33 2.99 4.66 3.98 5 5 C3.35 4.67 1.7 4.34 0 4 C0 2.68 0 1.36 0 0 Z " fill="#0255DF" transform="translate(150,376)"/>
<path d="M0 0 C0.66 0 1.32 0 2 0 C2 0.99 2 1.98 2 3 C2.66 3 3.32 3 4 3 C3.67 4.32 3.34 5.64 3 7 C2.34 7 1.68 7 1 7 C0.67 4.69 0.34 2.38 0 0 Z " fill="#0B85C8" transform="translate(318,365)"/>
<path d="M0 0 C0.66 0.99 1.32 1.98 2 3 C0.02 4.32 -1.96 5.64 -4 7 C-4.66 6.67 -5.32 6.34 -6 6 C-4.02 4.02 -2.04 2.04 0 0 Z " fill="#36A6CA" transform="translate(348,311)"/>
<path d="M0 0 C1.32 0.99 2.64 1.98 4 3 C3.67 3.99 3.34 4.98 3 6 C1.68 5.67 0.36 5.34 -1 5 C-0.67 3.35 -0.34 1.7 0 0 Z " fill="#1E79CB" transform="translate(98,258)"/>
<path d="M0 0 C0.33 0 0.66 0 1 0 C1 2.97 1 5.94 1 9 C-0.98 9.99 -0.98 9.99 -3 11 C-3 10.01 -3 9.02 -3 8 C-2.34 7.67 -1.68 7.34 -1 7 C-0.59270772 4.67843403 -0.25561323 2.3431213 0 0 Z " fill="#0CB7BB" transform="translate(287,178)"/>
<path d="M0 0 C1.32 0.33 2.64 0.66 4 1 C4 1.66 4 2.32 4 3 C2.02 3.66 0.04 4.32 -2 5 C-1.34 3.35 -0.68 1.7 0 0 Z " fill="#09DAB7" transform="translate(403,170)"/>
<path d="M0 0 C0.33 0.99 0.66 1.98 1 3 C0.01 4.485 0.01 4.485 -1 6 C-2.32 5.67 -3.64 5.34 -5 5 C-3.35 3.35 -1.7 1.7 0 0 Z " fill="#3EADCA" transform="translate(116,148)"/>
</svg>
